<?xml version="1.0" encoding="UTF-8" standalone="no"?>
<!-- Created with Inkscape (http://www.inkscape.org/) -->

<svg
   xmlns:dc="http://purl.org/dc/elements/1.1/"
   xmlns:cc="http://creativecommons.org/ns#"
   xmlns:rdf="http://www.w3.org/1999/02/22-rdf-syntax-ns#"
   xmlns:svg="http://www.w3.org/2000/svg"
   xmlns="http://www.w3.org/2000/svg"
   xmlns:sodipodi="http://sodipodi.sourceforge.net/DTD/sodipodi-0.dtd"
   xmlns:inkscape="http://www.inkscape.org/namespaces/inkscape"
   width="39.234955mm"
   height="41.923782mm"
   viewBox="0 0 139.02149 148.54883"
   id="svg2"
   version="1.1"
   inkscape:version="0.91 r13725"
   sodipodi:docname="hehe.svg">
  <defs
     id="defs4" />
  <sodipodi:namedview
     id="base"
     pagecolor="#ffffff"
     bordercolor="#666666"
     borderopacity="1.0"
     inkscape:pageopacity="0.0"
     inkscape:pageshadow="2"
     inkscape:zoom="2.8284271"
     inkscape:cx="66.910553"
     inkscape:cy="66.229116"
     inkscape:document-units="px"
     inkscape:current-layer="layer1"
     showgrid="false"
     fit-margin-top="0"
     fit-margin-left="0"
     fit-margin-right="0"
     fit-margin-bottom="0"
     inkscape:window-width="1364"
     inkscape:window-height="766"
     inkscape:window-x="0"
     inkscape:window-y="0"
     inkscape:window-maximized="0" />
  <metadata
     id="metadata7">
    <rdf:RDF>
      <cc:Work
         rdf:about="">
        <dc:format>image/svg+xml</dc:format>
        <dc:type
           rdf:resource="http://purl.org/dc/dcmitype/StillImage" />
        <dc:title></dc:title>
      </cc:Work>
    </rdf:RDF>
  </metadata>
  <g
     inkscape:label="Layer 1"
     inkscape:groupmode="layer"
     id="layer1"
     transform="translate(-186.57031,-405.53711)">
    <flowRoot
       xml:space="preserve"
       id="flowRoot4136"
       style="font-style:normal;font-weight:normal;font-size:20px;line-height:125%;font-family:sans-serif;letter-spacing:0px;word-spacing:0px;writing-mode:tb-rl;fill:#000000;fill-opacity:1;stroke:none;stroke-width:1px;stroke-linecap:butt;stroke-linejoin:miter;stroke-opacity:1"><flowRegion
         id="flowRegion4138"><rect
           id="rect4140"
           width="258.59906"
           height="223.24371"
           x="192.93913"
           y="455.36206" /></flowRegion><flowPara
         id="flowPara4142"></flowPara></flowRoot>    <text
       xml:space="preserve"
       style="font-style:normal;font-weight:normal;font-size:20px;line-height:125%;font-family:sans-serif;letter-spacing:0px;word-spacing:0px;writing-mode:tb-rl;fill:#000000;fill-opacity:1;stroke:none;stroke-width:1px;stroke-linecap:butt;stroke-linejoin:miter;stroke-opacity:1"
       x="195.71429"
       y="409.50507"
       id="text4144"
       sodipodi:linespacing="125%"><tspan
         sodipodi:role="line"
         id="tspan4146"
         x="409.50507"
         y="195.71429"></tspan></text>
    <path
       style="font-style:normal;font-weight:normal;font-size:20px;line-height:125%;font-family:sans-serif;letter-spacing:0px;word-spacing:0px;writing-mode:tb-rl;fill:#000000;fill-opacity:1;stroke:none;stroke-width:1px;stroke-linecap:butt;stroke-linejoin:miter;stroke-opacity:1"
       d="m 194.87109,405.53711 c -0.8,0 -1.46093,0.63898 -1.46093,1.45898 0,0.82 0.66093,1.48047 1.46093,1.48047 0.82,0 1.48047,-0.66047 1.48047,-1.48047 0,-0.82 -0.66047,-1.45898 -1.48047,-1.45898 z m 40.56055,0.25977 -0.7207,0.29882 c 0.34,0.44 0.67945,1.06008 0.93945,1.58008 l 0.74023,-0.32031 c -0.25999,-0.5 -0.67898,-1.1586 -0.95898,-1.55859 z m 58.91992,0.32031 c -0.3125,0 -0.57942,0.10091 -0.80078,0.30273 -0.29297,0.23438 -0.43945,0.54688 -0.43945,0.9375 0,0.48177 0.20508,0.8431 0.61523,1.08399 0.20183,0.11718 0.41016,0.17578 0.625,0.17578 0.46875,0 0.82032,-0.19857 1.05469,-0.59571 0.13672,-0.21484 0.20508,-0.43619 0.20508,-0.66406 0,-0.5013 -0.22787,-0.86263 -0.6836,-1.08398 -0.1888,-0.10417 -0.38085,-0.15625 -0.57617,-0.15625 z m 19.17969,0 c -0.04,0.3 -0.14117,0.61984 -0.20117,0.83984 -0.2,0.72 -0.71883,1.75969 -1.29883,2.67969 -0.86,-0.58 -2.10078,-1.38024 -2.80078,-1.74024 l -0.69922,0.88086 c 0.8,0.42 2.01938,1.1793 2.85937,1.7793 -1,1.26 -2.16031,2.37922 -3.82031,3.19922 l 0.91992,0.88086 c 1.78,-1.02 2.90125,-2.25992 3.78125,-3.41992 0.94,0.72 2.00008,1.61875 2.58008,2.21875 l 0.79883,-0.95899 c -0.56,-0.54 -1.77875,-1.51922 -2.71875,-2.19922 0.66,-1.04 1.19852,-2.24187 1.47852,-2.92187 0.08,-0.24 0.19984,-0.5393 0.33984,-0.7793 l -1.21875,-0.45898 z m -118.66016,0.0195 c 0.52,0 0.90039,0.37937 0.90039,0.85937 0,0.5 -0.38039,0.88086 -0.90039,0.88086 -0.48,0 -0.85937,-0.38086 -0.85937,-0.88086 0,-0.48 0.37937,-0.85937 0.85937,-0.85937 z m 39.37891,0.0801 -0.69922,0.29882 c 0.32,0.44 0.67945,1.10008 0.93945,1.58008 l 0.72071,-0.31836 c -0.24,-0.46 -0.66094,-1.14054 -0.96094,-1.56054 z m -23.03906,0.0391 c 0.06,0.2 0.0996,0.74055 0.0996,1.06055 l 0,1.32031 -2.95899,0 c -0.38,0 -0.86008,-0.0406 -1.08008,-0.0606 l 0,1.17969 c 0.22,-0.02 0.69961,-0.0391 1.09961,-0.0391 l 2.93946,0 c -0.04,2.14 -0.83891,3.60007 -2.87891,4.58008 l 1.03906,0.75976 c 2.22,-1.2 2.92094,-2.99984 2.96094,-5.33984 l 2.67969,0 c 0.32,0 0.85906,0.0191 1.03906,0.0391 l 0,-1.17969 c -0.18,0.04 -0.67953,0.0606 -1.01953,0.0606 l -2.69922,0 0,-1.32031 c 0,-0.32 0.0601,-0.86055 0.0801,-1.06055 l -1.30078,0 z m 60,0 c 0.06,0.2 0.0996,0.74055 0.0996,1.06055 l 0,1.32031 -2.95899,0 c -0.38,0 -0.86008,-0.0406 -1.08008,-0.0606 l 0,1.17969 c 0.22,-0.02 0.69961,-0.0391 1.09961,-0.0391 l 2.93946,0 c -0.04,2.14 -0.83891,3.60007 -2.87891,4.58008 l 1.03906,0.75976 c 2.22,-1.2 2.92094,-2.99984 2.96094,-5.33984 l 2.67969,0 c 0.32,0 0.85906,0.0191 1.03906,0.0391 l 0,-1.17969 c -0.18,0.04 -0.67953,0.0606 -1.01953,0.0606 l -2.69922,0 0,-1.32031 c 0,-0.32 0.0601,-0.86055 0.0801,-1.06055 l -1.30078,0 z m -83.7793,0.0996 c 0.06,0.38 0.0801,0.68094 0.0801,0.96094 l 0,5.53906 c 0,0.96 0.45844,1.50016 1.39844,1.66015 0.42,0.08 1.04015,0.1211 1.66015,0.1211 1.22,0 2.55961,-0.0798 3.59961,-0.25977 l 0,-1.24023 c -0.92,0.24 -2.37859,0.35937 -3.55859,0.35937 -0.54,0 -0.96125,-0.0396 -1.28125,-0.0996 -0.5,-0.08 -0.67969,-0.23937 -0.67969,-0.85937 l 0,-1.90039 c 1.3,-0.34 2.90016,-0.80031 4.16016,-1.32031 0.34,-0.1 0.67961,-0.25993 1.09961,-0.41993 l -0.58008,-1.11914 c -0.36,0.24 -0.69906,0.3986 -1.03906,0.5586 -0.92,0.38 -2.42063,0.88117 -3.64063,1.20117 l 0,-2.2207 c 0,-0.32 0.0201,-0.60094 0.0801,-0.96094 l -1.29883,0 z m 106.91992,0.29883 c 0.48177,0 0.72266,0.23437 0.72266,0.70312 0,0.48177 -0.24089,0.72266 -0.72266,0.72266 -0.46875,0 -0.70312,-0.24089 -0.70312,-0.72266 0,-0.46875 0.23437,-0.70312 0.70312,-0.70312 z m -39.9414,0.0215 -0.74024,0.30078 c 0.34,0.44 0.70047,1.05961 0.98047,1.59961 l 0.74023,-0.32031 c -0.27999,-0.5 -0.70046,-1.16008 -0.98046,-1.58008 z m -1.17969,0.44141 -0.74024,0.29883 c 0.32,0.42 0.72047,1.10109 0.98047,1.62109 l 0.74024,-0.32031 c -0.26,-0.48 -0.68047,-1.17961 -0.98047,-1.59961 z m -25.40039,0.16015 0,1.17969 c 0.28,-0.02 0.74156,-0.0605 1.10156,-0.0605 l 3.85938,0 c 0.3,0 0.77961,0.0405 1.0996,0.0605 l 0,-1.17969 c -0.29999,0.04 -0.7996,0.0586 -1.0996,0.0586 l -3.88086,0 c -0.34,0 -0.76008,-0.0386 -1.08008,-0.0586 z m 22.45898,0.1875 c -0.2725,0.0125 -0.52836,0.19125 -0.81836,0.53125 -0.64,0.76 -1.64062,1.99954 -2.14062,2.51953 -0.28,0.28002 -0.51985,0.50071 -0.83985,0.72071 l 0.98047,1 c 0.14,-0.22 0.39961,-0.54031 0.59961,-0.82031 0.46,-0.58 1.44,-1.79899 2,-2.45899 0.22,-0.24 0.31961,-0.28101 0.59961,-0.041 0.52,0.46 1.18094,1.16054 1.96094,2.06054 0.72,0.8 1.63906,1.73992 2.53906,2.91992 l 0.74024,-1 c -1.02,-1.16 -1.89961,-2.08031 -2.59961,-2.82031 -0.62,-0.64 -1.53961,-1.64062 -2.09961,-2.14062 -0.36,-0.33 -0.64938,-0.48321 -0.92188,-0.47071 z m 40.52735,0.01 c -0.19532,0 -0.41667,0.15299 -0.66407,0.45898 -1.03515,1.31511 -2.14192,2.36329 -3.32031,3.14453 l 0.80078,1.07422 c 1.08724,-0.92448 2.04753,-1.93685 2.88086,-3.03711 0.13021,-0.17578 0.24414,-0.26367 0.3418,-0.26367 0.0911,0 0.25065,0.11393 0.47851,0.3418 1.39323,1.58203 2.93295,3.01107 4.61914,4.28711 l 0.80079,-1.2207 c -1.79688,-1.13933 -3.45703,-2.5 -4.98047,-4.08204 -0.46875,-0.46875 -0.78776,-0.70312 -0.95703,-0.70312 z m -33.70508,2.14258 0,1.25976 c 0.32,-0.02 0.85945,-0.0605 1.43945,-0.0605 l 5.64063,0 c 0.46,0 0.86007,0.0605 1.08007,0.0605 l 0,-1.25976 c -0.24,0.04 -0.56007,0.0801 -1.08007,0.0801 l -5.64063,0 c -0.58,0 -1.13945,-0.0401 -1.43945,-0.0801 z m -30.48047,0.23828 0,1.16015 c 0.28,-0.02 0.69953,-0.0391 1.01953,-0.0391 l 2.90039,0 c -0.04,0.94 -0.15914,1.75899 -0.61914,2.45899 -0.44,0.7 -1.20016,1.28117 -2.16016,1.70117 l 1.01954,0.74023 c 1.04,-0.5 1.84023,-1.32008 2.24023,-2.08007 0.42,-0.76 0.59867,-1.70032 0.63867,-2.82032 l 2.64063,0 c 0.28,0 0.69992,0.0191 0.91992,0.0391 l 0,-1.16015 c -0.24,0.04 -0.67992,0.0605 -0.91992,0.0605 l -6.66016,0 c -0.32,0 -0.73953,-0.0405 -1.01953,-0.0605 z m 70.14258,0.0215 0,1.12305 8.24218,0 0,-1.12305 -8.24218,0 z m -1.3418,17.8418 -0.7207,0.29883 c 0.34,0.44 0.67945,1.06008 0.93945,1.58008 l 0.74023,-0.31836 c -0.25999,-0.5 -0.67898,-1.16055 -0.95898,-1.56055 z m -101.08008,0.32031 c -0.3125,0 -0.57942,0.10091 -0.80078,0.30274 -0.29297,0.23437 -0.43945,0.54687 -0.43945,0.9375 0,0.48177 0.20508,0.8431 0.61523,1.08398 0.20183,0.11719 0.41016,0.17578 0.625,0.17578 0.46875,0 0.82032,-0.19857 1.05469,-0.5957 0.13672,-0.21484 0.20508,-0.4362 0.20508,-0.66406 0,-0.50131 -0.22787,-0.86263 -0.6836,-1.08399 -0.1888,-0.10416 -0.38085,-0.15625 -0.57617,-0.15625 z m 54.16016,0.0996 c 0,0.22 -0.0205,0.5393 -0.0606,0.7793 -0.14,0.88 -0.48047,2.92 -0.48047,4.5 0,1.46 0.18039,2.72 0.40039,3.5 l 1.03907,-0.0801 -0.0586,-0.40039 c 0,-0.14 0.0386,-0.36 0.0586,-0.5 0.12,-0.54 0.47976,-1.57984 0.75976,-2.33984 l -0.59961,-0.5 c -0.18,0.44 -0.38,0.91992 -0.5,1.41992 -0.06,-0.48 -0.0586,-0.71977 -0.0586,-1.25977 0,-1.22 0.31953,-3.27883 0.51953,-4.29883 0.06,-0.2 0.13922,-0.54117 0.19922,-0.70117 l -1.21875,-0.11914 z m 45.73828,0 -0.69922,0.29883 c 0.32,0.44 0.67945,1.10008 0.93945,1.58008 l 0.72071,-0.31836 c -0.24,-0.46 -0.66094,-1.14055 -0.96094,-1.56055 z m -37.7793,0.25977 c -1.28,0.18 -3.26,0.30015 -5,0.16015 l 0,1.01953 c 0.76,0.04 1.56032,0.04 2.32032,0 l 0,1.56055 c -0.8,0.02 -1.64047,-5.4e-4 -2.48047,-0.0605 l 0,1.01954 c 0.82,0.04 1.68047,0.0415 2.48047,0.0215 0.02,0.5 0.0401,1.03906 0.0801,1.53906 -0.28,-0.04 -0.53984,-0.0605 -0.83984,-0.0605 -1.5,0.02 -2.17969,0.84156 -2.17969,1.60156 0,1.1 0.97922,1.61914 2.19922,1.61914 1.2,0 1.89992,-0.52 1.91992,-1.5 l 0,-0.30078 c 0.56,0.32 1.09961,0.74023 1.59961,1.24023 l 0.56055,-0.95898 c -0.5,-0.46 -1.2407,-1.04086 -2.2207,-1.38086 -0.02,-0.58 -0.0601,-1.22031 -0.0801,-1.82031 0.7,-0.04 1.34086,-0.10016 1.88086,-0.16016 l 0,-1.01953 c -0.56,0.06 -1.20086,0.13969 -1.88086,0.17969 l 0,-1.5586 c 0.62,-0.04 1.18062,-0.0811 1.64062,-0.12109 l 0,-1.01953 z m 21.74024,0.16015 c 0.04,0.22 0.0801,0.53985 0.0801,0.83985 0,1.12 -0.0203,2.89984 -0.32032,3.83984 -0.32,1 -0.86023,1.72039 -1.74023,2.40039 l 0.96094,0.74024 c 0.9,-0.74 1.55937,-1.78133 1.85937,-2.86133 0.28,-1.02 0.32031,-3.01867 0.32031,-4.13867 0,-0.28 0.0606,-0.70032 0.0606,-0.82032 l -1.2207,0 z m -83.85938,0.0176 c 0.48177,0 0.72266,0.23438 0.72266,0.70313 0,0.48177 -0.24089,0.72265 -0.72266,0.72265 -0.46875,0 -0.70312,-0.24088 -0.70312,-0.72265 0,-0.46875 0.23437,-0.70313 0.70312,-0.70313 z m 23.97852,0.002 c 0.02,0.20001 0.0606,0.54032 0.0605,0.82032 0,1.12 0.001,2.91937 -0.29882,3.85937 -0.32,0.98 -0.86024,1.70039 -1.74024,2.40039 l 0.95899,0.72071 c 0.88,-0.74 1.55984,-1.76133 1.83984,-2.86133 0.3,-1.02 0.33984,-2.99914 0.33984,-4.11914 0,-0.3 0.0405,-0.70032 0.0606,-0.82032 l -1.2207,0 z m 2.68164,0 c 0.02,0.08 0.0801,0.46032 0.0801,0.82032 l 0,5.85937 c 0,0.18 -0.0201,0.42008 -0.0801,0.58008 l 0.63867,0.51953 c 0.1,-0.06 0.20086,-0.15976 0.38086,-0.25976 1.14,-0.56 2.6,-1.67844 3.5,-2.89844 l -0.64063,-0.91992 c -0.77999,1.14 -1.85921,1.97992 -2.69921,2.41992 l 0,-5.28125 c 0,-0.38 0.0586,-0.75984 0.0586,-0.83985 l -1.23828,0 z m 59.89844,0 c 0,0.08 0.0605,0.44032 0.0605,0.82032 l 0,5.85937 c 0,0.16 -0.0201,0.40055 -0.0801,0.56055 l 0.64063,0.53906 c 0.1,-0.08 0.19891,-0.17929 0.37891,-0.2793 1.14,-0.56 2.62,-1.68039 3.5,-2.90039 l -0.63868,-0.91992 c -0.78,1.16 -1.86117,2.00141 -2.70117,2.44141 l 0,-5.30078 c 0,-0.36 0.0605,-0.74031 0.0605,-0.82032 l -1.2207,0 z m 33.5,0.0195 -0.74024,0.30078 c 0.34,0.44 0.70047,1.05961 0.98047,1.59961 l 0.74023,-0.32032 c -0.27998,-0.5 -0.70046,-1.16007 -0.98046,-1.58007 z m -86.85938,0.12109 0,1.24023 c 0.22,-0.02 0.76016,-0.0605 1.16016,-0.0605 l 5.51953,0 c -0.44,0.72 -1.59883,2.14015 -2.79883,3.16015 -0.68,-0.56 -1.48039,-1.12086 -1.90039,-1.38086 l -0.86133,0.74024 c 0.64,0.44 1.72133,1.20125 2.36133,1.78125 0.7,0.66 1.55953,1.50008 2.01953,2.08008 l 0.91992,-0.82032 c -0.42,-0.48 -1.1007,-1.13968 -1.7207,-1.67968 1.38,-1.16 2.78102,-2.90055 3.54102,-4.06055 0.08,-0.16 0.16031,-0.26086 0.32031,-0.38086 l -0.67969,-0.61914 c -0.14,0.04 -0.38016,0.0801 -0.66016,0.0801 l -6.06054,0 c -0.36,0 -0.86016,-0.0401 -1.16016,-0.0801 z m 40,0 0,1.24023 c 0.22,-0.02 0.76016,-0.0605 1.16016,-0.0605 l 5.51953,0 c -0.44,0.72 -1.59883,2.14062 -2.79883,3.14062 -0.66,-0.54 -1.48086,-1.10133 -1.88086,-1.36133 l -0.88086,0.74024 c 0.64,0.44 1.72133,1.20125 2.36133,1.78125 0.7,0.66 1.55906,1.50008 2.03906,2.08008 l 0.90039,-0.82032 c -0.42,-0.48 -1.09922,-1.13968 -1.69922,-1.67968 1.36,-1.18 2.75954,-2.90055 3.51954,-4.06055 0.08,-0.16 0.16031,-0.26086 0.32031,-0.38086 l -0.67969,-0.61914 c -0.12,0.04 -0.38016,0.0801 -0.66016,0.0801 l -6.06054,0 c -0.36,0 -0.86016,-0.0401 -1.16016,-0.0801 z m -57.50195,0.31641 c -0.2725,0.0175 -0.52836,0.20298 -0.81836,0.54296 -0.64,0.76001 -1.61867,1.97954 -2.13867,2.51954 -0.28,0.26 -0.52032,0.48117 -0.82032,0.70117 l 0.97852,1 c 0.12,-0.2 0.38156,-0.54031 0.60156,-0.82031 0.46,-0.56 1.44,-1.79946 2,-2.43946 0.2,-0.24 0.29961,-0.30054 0.59961,-0.0605 0.5,0.46 1.17899,1.15906 1.95899,2.03906 0.7,0.8 1.6,1.84094 2.5,2.96094 l 0.78125,-1 c -1.04,-1.18 -1.91961,-2.11985 -2.59961,-2.83985 -0.64,-0.66 -1.5611,-1.62062 -2.1211,-2.14062 -0.36,-0.33 -0.64937,-0.48039 -0.92187,-0.46289 z m 103.18164,0.004 -0.74024,0.29883 c 0.32,0.42 0.72047,1.10109 0.98047,1.62109 l 0.74024,-0.32031 c -0.26,-0.48 -0.68047,-1.17961 -0.98047,-1.59961 z m -25.40039,0.16016 0,1.17969 c 0.28,-0.02 0.74156,-0.0606 1.10156,-0.0606 l 3.85938,0 c 0.3,0 0.77961,0.0405 1.0996,0.0606 l 0,-1.17969 c -0.29999,0.04 -0.7996,0.0586 -1.0996,0.0586 l -3.88086,0 c -0.34,0 -0.76008,-0.0386 -1.08008,-0.0586 z m 22.45898,0.1875 c -0.2725,0.0125 -0.52836,0.19125 -0.81836,0.53125 -0.64,0.76 -1.64062,1.99953 -2.14062,2.51953 -0.28,0.28 -0.51985,0.5007 -0.83985,0.7207 l 0.98047,1 c 0.14,-0.22 0.39961,-0.54031 0.59961,-0.82031 0.46,-0.58 1.44,-1.79898 2,-2.45898 0.22,-0.24 0.31961,-0.28102 0.59961,-0.041 0.52,0.46 1.18094,1.16055 1.96094,2.06055 0.72,0.8 1.63906,1.73992 2.53906,2.91992 l 0.74024,-1 c -1.02,-1.16 -1.89961,-2.08031 -2.59961,-2.82031 -0.62,-0.64 -1.53961,-1.64063 -2.09961,-2.14063 -0.36,-0.33 -0.64938,-0.4832 -0.92188,-0.4707 z m -119.47265,0.01 c -0.19532,0 -0.41667,0.153 -0.66407,0.45899 -1.03515,1.3151 -2.14192,2.36328 -3.32031,3.14453 l 0.80078,1.07422 c 1.08724,-0.92448 2.04753,-1.93685 2.88086,-3.03711 0.13021,-0.17578 0.24414,-0.26367 0.3418,-0.26367 0.0911,0 0.25065,0.11393 0.47851,0.34179 1.39323,1.58204 2.93295,3.01107 4.61914,4.28711 l 0.80079,-1.2207 c -1.79688,-1.13932 -3.45703,-2.5 -4.98047,-4.08203 -0.46875,-0.46875 -0.78776,-0.70313 -0.95703,-0.70313 z m 50.13476,0.0625 -0.93945,0.33985 c 0.24,0.48 0.61976,1.59867 0.75976,2.13867 l 0.95899,-0.33984 c -0.14,-0.5 -0.5793,-1.71868 -0.7793,-2.13868 z m 2.45899,0.37891 c -0.18,1.28 -0.69891,2.56141 -1.37891,3.44141 -0.84,1.08 -2.02055,1.83922 -3.06055,2.19922 l 0.90039,0.80078 c 0.86,-0.4 2.11954,-1.20039 3.01953,-2.40039 0.70001,-0.94 1.18047,-2.11969 1.48047,-3.17969 0.04,-0.1 0.10071,-0.28008 0.22071,-0.58008 l -1.18164,-0.28125 z m -4.81836,0.17969 -0.92188,0.40039 c 0.22,0.42 0.70086,1.60117 0.88086,2.20117 l 0.93945,-0.38086 c -0.24,-0.66 -0.65843,-1.6807 -0.89843,-2.2207 z m 78.51953,1.52148 0,1.25977 c 0.32,-0.02 0.85945,-0.0606 1.43945,-0.0606 l 5.64063,0 c 0.46,0 0.86007,0.0606 1.08007,0.0606 l 0,-1.25977 c -0.24,0.04 -0.56007,0.0801 -1.08007,0.0801 l -5.64063,0 c -0.58,0 -1.13945,-0.0401 -1.43945,-0.0801 z m -30.48047,0.24024 0,1.1582 c 0.28,-0.02 0.69953,-0.0391 1.01953,-0.0391 l 2.90039,0 c -0.04,0.94 -0.15914,1.75898 -0.61914,2.45898 -0.44,0.7 -1.20016,1.28117 -2.16016,1.70117 l 1.01954,0.74024 c 1.04,-0.5 1.84023,-1.32008 2.24023,-2.08008 0.42,-0.76 0.59867,-1.70031 0.63867,-2.82031 l 2.64063,0 c 0.28,0 0.69992,0.0191 0.91992,0.0391 l 0,-1.1582 c -0.24,0.04 -0.67992,0.0586 -0.91992,0.0586 l -6.66016,0 c -0.32,0 -0.73953,-0.0386 -1.01953,-0.0586 z m -89.85742,0.0195 0,1.12305 8.24218,0 0,-1.12305 -8.24218,0 z m 56.23828,2.69922 c 0.3,0 0.59844,0.0411 0.89844,0.12109 l 0,0.33984 c 0,0.56 -0.21946,0.87891 -0.93946,0.87891 -0.76,0 -1.11914,-0.27922 -1.11914,-0.69922 0,-0.36 0.48016,-0.64062 1.16016,-0.64062 z m 35.5,15.5625 c 0,0.22 -0.0206,0.53929 -0.0606,0.77929 -0.14,0.88 -0.48047,2.92 -0.48047,4.5 0,1.46 0.18039,2.72 0.40039,3.5 l 1.03907,-0.0801 -0.0586,-0.40039 c 0,-0.14 0.0386,-0.36001 0.0586,-0.5 0.12,-0.54 0.47976,-1.57985 0.75976,-2.33985 l -0.59961,-0.5 c -0.18,0.44 -0.38,0.91992 -0.5,1.41992 -0.06,-0.48 -0.0586,-0.71976 -0.0586,-1.25976 0,-1.22 0.31953,-3.27883 0.51953,-4.29883 0.06,-0.2 0.13922,-0.54117 0.19922,-0.70117 l -1.21875,-0.11914 z m -97.30078,0.0391 c 0.06,0.2 0.0996,0.74055 0.0996,1.06055 l 0,1.32031 -2.95899,0 c -0.38,0 -0.86008,-0.0406 -1.08008,-0.0606 l 0,1.17969 c 0.22,-0.02 0.69961,-0.0391 1.09961,-0.0391 l 2.93946,0 c -0.04,2.14 -0.83891,3.60008 -2.87891,4.58007 l 1.03906,0.75977 c 2.22,-1.2 2.92094,-2.99984 2.96094,-5.33984 l 2.67969,0 c 0.32,0 0.85906,0.0191 1.03906,0.0391 l 0,-1.17969 c -0.18,0.04 -0.67953,0.0606 -1.01953,0.0606 l -2.69922,0 0,-1.32031 c 0,-0.32 0.0601,-0.86055 0.0801,-1.06055 l -1.30078,0 z m 78.58008,0.0801 -1.24024,0.30078 c 0.14,0.28 0.21985,0.51984 0.33984,0.83984 0.06,0.22 0.21993,0.72086 0.41993,1.38086 -0.72,0.14 -1.25946,0.23977 -1.43946,0.25977 -0.38,0.08 -0.70109,0.0987 -1.12109,0.13867 l 0.30078,1.14062 c 0.36,-0.08 1.40055,-0.27953 2.56055,-0.51953 0.48,1.72 1.07875,3.78032 1.21875,4.32032 0.08,0.3 0.1607,0.63898 0.2207,0.95898 l 1.24024,-0.33984 c -0.12,-0.28 -0.26032,-0.65993 -0.32032,-0.91993 -0.18,-0.56 -0.73976,-2.50023 -1.25976,-4.24023 1.56,-0.3 3.04031,-0.60062 3.32031,-0.64062 -0.44,0.75999 -1.07992,1.62085 -1.91992,2.38085 l 1.01953,0.58008 c 0.94,-0.9 1.98055,-2.63976 2.56055,-3.75976 l -0.82032,-0.51953 c -0.12,0.06 -0.32046,0.12015 -0.48047,0.16015 -0.39999,0.1 -2.32046,0.4593 -3.98046,0.7793 l -0.41993,-1.43945 c -0.12,-0.32 -0.15921,-0.60133 -0.19921,-0.86133 z m 26.67968,0.14062 c -1.28,0.18 -3.26,0.30016 -5,0.16016 l 0,1.01953 c 0.76,0.04 1.56032,0.04 2.32032,0 l 0,1.56055 c -0.8,0.02 -1.64047,-5.5e-4 -2.48047,-0.0605 l 0,1.01953 c 0.82,0.04 1.68047,0.0415 2.48047,0.0215 0.02,0.5 0.0401,1.03906 0.0801,1.53906 -0.28,-0.04 -0.53984,-0.0606 -0.83984,-0.0606 -1.5,0.02 -2.17969,0.84156 -2.17969,1.60156 0,1.1 0.97922,1.61914 2.19922,1.61914 1.2,0 1.89992,-0.52 1.91992,-1.5 l 0,-0.30078 c 0.56,0.32 1.09961,0.74024 1.59961,1.24024 l 0.56055,-0.95899 c -0.5,-0.46 -1.2407,-1.04086 -2.2207,-1.38086 -0.02,-0.58 -0.0601,-1.22031 -0.0801,-1.82031 0.7,-0.04 1.34086,-0.10017 1.88086,-0.16015 l 0,-1.01954 c -0.56,0.06 -1.20086,0.13969 -1.88086,0.17969 l 0,-1.55859 c 0.62,-0.04 1.18062,-0.0811 1.64062,-0.1211 l 0,-1.01953 z m -38.32031,0.19922 c 0.02,0.22 0.0605,0.55984 0.0605,0.83985 0,1.12 -7.8e-4,2.92179 -0.30078,3.84179 -0.32,1 -0.86024,1.71844 -1.74024,2.39844 l 0.96094,0.74023 c 0.88,-0.74 1.55984,-1.75937 1.83984,-2.85937 0.3,-1.02 0.33985,-3.02063 0.33985,-4.14063 0,-0.28 0.0405,-0.70031 0.0605,-0.82031 l -1.2207,0 z m 2.67969,0.0215 c 0.02,0.08 0.0801,0.43835 0.0801,0.81836 l 0,5.86132 c 0,0.18 -0.0201,0.40055 -0.0801,0.56055 l 0.64062,0.53906 c 0.1,-0.08 0.20086,-0.17976 0.38086,-0.25976 1.14,-0.58 2.6,-1.67991 3.5,-2.91993 l -0.64062,-0.90039 c -0.78,1.14 -1.85922,1.97993 -2.69922,2.41993 l 0,-5.2793 c 0,-0.38 0.0586,-0.75984 0.0586,-0.83984 l -1.24023,0 z m 56.38086,0.0195 0,1.16015 c 0.42,-0.02 0.88078,-0.0605 1.30078,-0.0605 0.48,0 4.65844,0.0195 5.39844,0.0195 -0.4,0.66 -1.17868,1.54156 -2.13868,2.10156 l 0.91993,0.69922 c 1.16,-0.78 2.22007,-2.34039 2.58007,-2.90039 0.08,-0.12 0.22032,-0.31945 0.32032,-0.43946 l -0.64063,-0.56054 c -0.16,0.04 -0.54023,0.0801 -0.74023,0.0801 l -5.69922,0 c -0.42,0 -0.94078,-0.0596 -1.30078,-0.0996 z m -109.56055,0.0195 0,1.20117 c 0.32,-0.04 0.70109,-0.041 1.12109,-0.041 l 4.87891,0 c -0.14,0.82 -0.55883,2.10008 -1.29883,3.08008 -0.88,1.14 -2.10125,1.95992 -3.78125,2.41992 l 0.94141,1 c 1.62,-0.62 2.8393,-1.57976 3.7793,-2.75976 0.84,-1.1 1.39914,-2.75938 1.61914,-3.85938 0.04,-0.18 0.10117,-0.38156 0.20117,-0.60156 l -0.66016,-0.43945 c -0.2,0.06 -0.48015,0.0996 -0.66015,0.0996 l -5.01954,0 c -0.34,0 -0.76109,-0.0396 -1.12109,-0.0996 z m 39.96094,0.12109 0,1.25977 c 0.24,-0.02 0.83875,-0.0605 1.21875,-0.0605 l 4.82031,0 0,4.33984 -4.87891,0 c -0.44,0 -0.96023,-0.0596 -1.24023,-0.0996 l 0,1.2793 c 0.36,-0.04 0.81977,-0.0391 1.25977,-0.0391 l 4.85937,0 -0.0195,0.5 1.2207,0 c 0,0 -0.041,-0.70055 -0.041,-1.06055 l 0,-5.17969 c 0,-0.24 0.021,-0.66039 0.041,-0.90039 -0.22,0.02 -0.60133,0.0195 -0.86133,0.0195 l -5.16015,0 c -0.34,0 -0.83875,-0.0186 -1.21875,-0.0586 z m 65.75976,0.0801 c -0.12,0.04 -0.44062,0.0781 -0.64062,0.0781 l -3.59961,0 c -0.34,0 -0.72055,-0.0186 -1.06055,-0.0586 l 0,1.21875 c 0.38,-0.02 0.68055,-0.0391 1.06055,-0.0391 l 3.69922,0 c -0.02,0.6 -0.29944,3.00017 -0.43946,4.16015 l -4.11914,0 c -0.36,0 -0.86117,-0.0205 -1.20117,-0.0605 l 0,1.24023 c 0.4,-0.04 0.82117,-0.0391 1.20117,-0.0391 0.72,-0.02 5.67844,-0.0215 6.39844,-0.0215 0.32,0 0.84156,0.0405 1.10156,0.0605 l 0,-1.24023 c -0.3,0.02 -0.82109,0.0605 -1.12109,0.0605 l -1.09961,0 c 0.16,-1.24 0.41953,-3.6796 0.51953,-4.5996 0,-0.08 0.0396,-0.24086 0.0996,-0.38086 l -0.79883,-0.37891 z m -91,0.0586 c -0.06,0.12 -0.15929,0.28141 -0.27929,0.44141 -0.42,0.66 -1.1418,1.47953 -1.8418,2.01953 -0.78,0.62 -1.81945,1.14 -2.93945,1.5 l 0.56054,0.93945 c 0.8,-0.26 1.80008,-0.78078 2.58008,-1.30078 l 0,2.96094 c 0,0.34 -0.0401,0.86055 -0.0801,1.06055 l 1.14063,0 c -0.04,-0.2 -0.0606,-0.72055 -0.0606,-1.06055 l 0,-3.75977 c 0.78,-0.72 1.38024,-1.50007 1.74024,-2.08007 l -0.82032,-0.72071 z m 5.26172,0.0195 0,3.85742 1.20117,0 0,-2.82227 4.94141,0 c -0.0977,1.20443 -0.33854,2.19727 -0.72266,2.97852 -0.65755,1.34765 -1.86523,2.35026 -3.62304,3.00781 l 1.00586,0.89844 c 1.39323,-0.69011 2.41862,-1.46485 3.07617,-2.32422 0.89193,-1.15235 1.39974,-2.82552 1.52344,-5.01953 l -0.64454,-0.57617 -6.75781,0 z m 12.91992,0.82031 -0.91796,0.45898 c 0.39062,0.67057 0.70312,1.38997 0.9375,2.15821 l 0.95703,-0.49805 c -0.33854,-0.93099 -0.66407,-1.63737 -0.97657,-2.11914 z m 2.53907,0.40039 c -0.22136,1.21094 -0.54037,2.16471 -0.95703,2.86133 -0.75521,1.23698 -2.00847,2.10286 -3.75977,2.59765 l 0.87891,0.83985 c 1.32812,-0.4362 2.36653,-1.06772 3.11523,-1.89453 0.8724,-0.95705 1.50065,-2.34376 1.88477,-4.16016 l -1.16211,-0.24414 z m -4.77539,0.15625 -0.90821,0.45898 c 0.36459,0.63151 0.6543,1.34115 0.86914,2.12891 l 0.9961,-0.48828 c -0.24089,-0.69662 -0.5599,-1.39649 -0.95703,-2.09961 z m 82.03515,0.14453 c 0.04,0.24 0.0586,0.48023 0.0586,0.74023 0,1.68 -0.29938,3.15922 -1.85938,4.19922 -0.3,0.18 -0.70047,0.31992 -0.98047,0.41992 l 0.98047,0.80079 c 2.72,-1.44 3,-3.48016 3,-6.16016 l -1.19922,0 z m -43.4414,0.95898 0,1.25977 c 0.32,-0.02 0.8614,-0.0586 1.4414,-0.0586 l 5.63867,0 c 0.46,0 0.86008,0.0586 1.08008,0.0586 l 0,-1.25977 c -0.24,0.04 -0.56008,0.0801 -1.08008,0.0801 l -5.63867,0 c -0.58,0 -1.1414,-0.0401 -1.4414,-0.0801 z m 16.10156,3.08008 c 0.3,0 0.59844,0.0411 0.89844,0.1211 l 0,0.33984 c 0,0.56 -0.21946,0.87891 -0.93946,0.87891 -0.76,0 -1.11914,-0.27922 -1.11914,-0.69922 0,-0.36 0.48016,-0.64063 1.16016,-0.64063 z M 234.25,471.90234 c -0.8,0 -1.41992,0.61993 -1.41992,1.41993 0,0.8 0.61992,1.41992 1.41992,1.41992 0.8,0 1.41992,-0.61992 1.41992,-1.41992 0,-0.8 -0.61992,-1.41993 -1.41992,-1.41993 z m -39.87891,0.0801 c -0.8,0 -1.41992,0.61992 -1.41992,1.41992 0,0.78 0.61992,1.40039 1.41992,1.40039 0.8,0 1.41993,-0.62039 1.41993,-1.40039 0,-0.8 -0.61993,-1.41992 -1.41993,-1.41992 z m 55.41993,0.11914 -1.24024,0.30078 c 0.14,0.28 0.21985,0.51985 0.33984,0.83985 0.06,0.22 0.21993,0.72086 0.41993,1.38086 -0.72,0.14 -1.25946,0.23976 -1.43946,0.25976 -0.38,0.08 -0.70109,0.0987 -1.12109,0.13867 l 0.30078,1.14063 c 0.36,-0.08 1.40055,-0.27953 2.56055,-0.51953 0.48,1.72 1.07875,3.78031 1.21875,4.32031 0.08,0.3 0.1607,0.63899 0.2207,0.95899 l 1.24024,-0.33985 c -0.12,-0.28 -0.26032,-0.65992 -0.32032,-0.91992 -0.18,-0.56 -0.73976,-2.50023 -1.25976,-4.24023 1.56,-0.30001 3.04031,-0.59868 3.32031,-0.63868 -0.44,0.76 -1.07992,1.61891 -1.91992,2.37891 l 1.01953,0.58008 c 0.94,-0.9 1.98055,-2.63977 2.56055,-3.75977 l -0.82032,-0.51953 c -0.12,0.06 -0.32046,0.12016 -0.48047,0.16016 -0.39999,0.1 -2.32046,0.45929 -3.98046,0.77929 l -0.41993,-1.43945 c -0.12,-0.32 -0.15921,-0.60133 -0.19921,-0.86133 z m -11.48047,0.14063 -0.71875,0.90039 c 0.88,0.52 2.09875,1.46 2.71875,2 l 0.74023,-0.91992 c -0.62,-0.56 -1.96023,-1.50047 -2.74023,-1.98047 z m 74.20117,0.0195 c 0.02,0.28 0.0586,0.66 0.0586,1 l 0,1.48047 c 0,2.02 -0.0998,2.73961 -0.83984,3.59961 -0.62,0.72 -1.53906,1.12039 -2.53906,1.40039 l 0.79882,0.96093 c 0.82,-0.28 1.9211,-0.80109 2.6211,-1.62109 0.74,-0.9 1.09961,-1.7393 1.09961,-4.2793 l 0,-1.54101 c 0,-0.34 0.0205,-0.74 0.0605,-1 l -1.25976,0 z m -4.60156,0.0801 c 0.02,0.2 0.0605,0.65984 0.0605,0.83984 l 0,3.44141 c 0,0.32 -0.0405,0.73843 -0.0605,0.89843 l 1.24023,0 c -0.02,-0.18 -0.0391,-0.6189 -0.0391,-0.8789 l 0,-3.46094 c 0,-0.24 0.0191,-0.63984 0.0391,-0.83984 l -1.24023,0 z m -89.69922,0.0605 c 0.04,0.22 0.0801,0.53985 0.0801,0.83985 0,1.12 -0.0203,2.89984 -0.32032,3.83984 -0.32,1 -0.86023,1.72039 -1.74023,2.40039 l 0.96094,0.74024 c 0.9,-0.74 1.55937,-1.77938 1.85937,-2.85938 0.28,-1.02 0.32031,-3.02062 0.32031,-4.14062 0,-0.28 0.0605,-0.70032 0.0605,-0.82032 l -1.2207,0 z m 2.69922,0.0195 c 0,0.08 0.0605,0.44031 0.0605,0.82031 l 0,5.85937 c 0,0.16 -0.0201,0.40055 -0.0801,0.56055 l 0.64063,0.54101 c 0.1,-0.08 0.19891,-0.18126 0.37891,-0.28124 1.14,-0.56001 2.62,-1.6804 3.5,-2.9004 l -0.63868,-0.91992 c -0.78,1.16 -1.86117,2.00141 -2.70117,2.44141 l 0,-5.30078 c 0,-0.36 0.0606,-0.74032 0.0606,-0.82031 l -1.2207,0 z m 13.33984,0.041 c 0.48,0 0.86133,0.37938 0.86133,0.85938 0,0.48 -0.38133,0.85937 -0.86133,0.85937 -0.48,0 -0.83984,-0.37937 -0.83984,-0.85937 0,-0.48 0.35984,-0.85938 0.83984,-0.85938 z m -39.87891,0.0801 c 0.48,0 0.85938,0.37937 0.85938,0.85937 0,0.48 -0.37938,0.85938 -0.85938,0.85938 -0.48,0 -0.83984,-0.37938 -0.83984,-0.85938 0,-0.48 0.35984,-0.85937 0.83984,-0.85937 z m 13.17969,0.0195 0,1.24023 c 0.22,-0.02 0.76016,-0.0605 1.16016,-0.0605 l 5.51953,0 c -0.44,0.72 -1.59883,2.14062 -2.79883,3.14062 -0.66,-0.54 -1.48086,-1.10133 -1.88086,-1.36133 l -0.88086,0.74024 c 0.64,0.44 1.72133,1.20125 2.36133,1.78125 0.7,0.66 1.55906,1.50008 2.03906,2.08008 l 0.90039,-0.82032 c -0.42,-0.48 -1.09922,-1.13968 -1.69922,-1.67968 1.36,-1.18 2.75954,-2.90055 3.51954,-4.06055 0.08,-0.16 0.16031,-0.26086 0.32031,-0.38086 l -0.67969,-0.61914 c -0.12,0.04 -0.38016,0.0801 -0.66016,0.0801 l -6.06054,0 c -0.36,0 -0.86016,-0.0401 -1.16016,-0.0801 z m 80,0 0,1.24023 c 0.22,-0.02 0.76016,-0.0605 1.16016,-0.0605 l 5.51953,0 c -0.44,0.72 -1.59883,2.14015 -2.79883,3.16015 -0.68,-0.56 -1.48039,-1.12086 -1.90039,-1.38086 l -0.86133,0.74024 c 0.64,0.44 1.72133,1.20125 2.36133,1.78125 0.7,0.66 1.55953,1.50008 2.01953,2.08008 l 0.91992,-0.82032 c -0.42,-0.48 -1.1007,-1.13968 -1.7207,-1.67968 1.38,-1.16 2.78102,-2.90055 3.54102,-4.06055 0.08,-0.16 0.16031,-0.26086 0.32031,-0.38086 l -0.67969,-0.61914 c -0.14,0.04 -0.38016,0.0801 -0.66016,0.0801 l -6.06054,0 c -0.36,0 -0.86016,-0.0401 -1.16016,-0.0801 z m -19.91797,0.21875 0,3.85742 1.20117,0 0,-2.82226 4.94141,0 c -0.0977,1.20442 -0.33854,2.19726 -0.72266,2.97851 -0.65755,1.34766 -1.86523,2.35026 -3.62304,3.00781 l 1.00586,0.89844 c 1.39323,-0.6901 2.41862,-1.46484 3.07617,-2.32422 0.89193,-1.15234 1.39974,-2.82552 1.52344,-5.01953 l -0.64454,-0.57617 -6.75781,0 z m -37.39258,0.42578 c -0.275,0.015 -0.52859,0.19516 -0.80859,0.53516 -0.64,0.76 -1.64016,1.97953 -2.16016,2.51953 -0.28,0.28 -0.50031,0.4807 -0.82031,0.7207 l 0.98047,1 c 0.14,-0.22 0.39961,-0.54031 0.59961,-0.82031 0.46,-0.58 1.44,-1.79899 2,-2.45899 0.22,-0.24 0.31961,-0.28101 0.59961,-0.041 0.5,0.46 1.18094,1.16055 1.96094,2.06055 0.7,0.8 1.63906,1.74039 2.53906,2.90039 l 0.74023,-0.98047 c -1.02,-1.18 -1.89961,-2.08031 -2.59961,-2.82031 -0.62,-0.66 -1.54156,-1.64016 -2.10156,-2.16016 -0.36,-0.32 -0.65469,-0.47008 -0.92969,-0.45508 z m -39.8789,0.0723 c -0.275,0.0175 -0.53055,0.20297 -0.81055,0.54297 -0.64,0.74 -1.64015,1.98 -2.16016,2.5 -0.25999,0.28 -0.50031,0.5007 -0.82031,0.7207 l 0.98047,1 c 0.14,-0.2 0.39961,-0.54031 0.59961,-0.82031 0.46,-0.58 1.44,-1.79946 2,-2.43946 0.22,-0.24 0.31961,-0.30101 0.59961,-0.041 0.5,0.46 1.18094,1.16101 1.96094,2.04101 0.7,0.8 1.63906,1.75993 2.53906,2.91992 l 0.74023,-0.98046 c -1.02,-1.18 -1.8996,-2.08032 -2.59961,-2.82032 -0.61999,-0.66 -1.5396,-1.64015 -2.0996,-2.16015 -0.36,-0.33 -0.65469,-0.48039 -0.92969,-0.46289 z m 110.58984,0.0234 -0.93945,0.33985 c 0.24,0.48 0.61976,1.60062 0.75976,2.14062 l 0.95899,-0.34179 c -0.14,-0.5 -0.5793,-1.71868 -0.7793,-2.13868 z m -20.39844,0.29883 -0.91796,0.45899 c 0.39062,0.67057 0.70312,1.38997 0.9375,2.1582 l 0.95703,-0.49805 c -0.33854,-0.93099 -0.66407,-1.63737 -0.97657,-2.11914 z m 22.85743,0.0801 c -0.18,1.28 -0.69891,2.56141 -1.37891,3.44141 -0.84,1.08 -2.02055,1.83922 -3.06055,2.19922 l 0.90039,0.80078 c 0.86,-0.4 2.11954,-1.20039 3.01953,-2.40039 0.70001,-0.94 1.18047,-2.11969 1.48047,-3.17969 0.04,-0.1 0.10071,-0.28008 0.22071,-0.58008 l -1.18164,-0.28125 z m -4.81836,0.18164 -0.92188,0.39844 c 0.22,0.42 0.70086,1.60117 0.88086,2.20117 l 0.93945,-0.38086 c -0.24,-0.66 -0.65843,-1.67875 -0.89843,-2.21875 z m -15.5,0.13867 c -0.22136,1.21094 -0.54037,2.16472 -0.95703,2.86133 -0.75521,1.23698 -2.00847,2.10287 -3.75977,2.59766 l 0.87891,0.83984 c 1.32812,-0.4362 2.36653,-1.06771 3.11523,-1.89453 0.8724,-0.95703 1.50065,-2.34375 1.88477,-4.16016 l -1.16211,-0.24414 z m -38.44141,0.041 c -0.62,1.26 -1.79976,2.51851 -3.25977,3.47851 -0.95999,0.62 -2.36031,1.11993 -3.82031,1.41993 l 0.64063,1.08007 c 1.22,-0.26 2.82031,-0.85906 3.82031,-1.53906 1.56,-1.04 2.65945,-2.18 3.43945,-3.5 l -0.82031,-0.93945 z m 33.66602,0.11523 -0.90821,0.45899 c 0.36459,0.63151 0.6543,1.34114 0.86914,2.1289 l 0.9961,-0.48828 c -0.24089,-0.69661 -0.5599,-1.39648 -0.95703,-2.09961 z m -21.40625,1.10352 0,1.25976 c 0.32,-0.02 0.8614,-0.0586 1.4414,-0.0586 l 5.63867,0 c 0.46,0 0.86008,0.0586 1.08008,0.0586 l 0,-1.25976 c -0.24,0.04 -0.56008,0.0801 -1.08008,0.0801 l -5.63867,0 c -0.58,0 -1.1414,-0.0401 -1.4414,-0.0801 z m -2.03907,17.96289 c -0.8,0 -1.46093,0.63898 -1.46093,1.45898 0,0.82 0.66093,1.48047 1.46093,1.48047 0.82,0 1.48047,-0.66047 1.48047,-1.48047 0,-0.82 -0.66047,-1.45898 -1.48047,-1.45898 z m -61.33984,0.58008 c -0.04,0.3 -0.14117,0.61984 -0.20117,0.83984 -0.2,0.72 -0.71883,1.75969 -1.29883,2.67969 -0.86,-0.58 -2.10078,-1.38024 -2.80078,-1.74024 l -0.69922,0.88086 c 0.8,0.42 2.01938,1.1793 2.85937,1.7793 -1,1.26 -2.16031,2.37922 -3.82031,3.19922 l 0.91992,0.88086 c 1.78,-1.02 2.90125,-2.25992 3.78125,-3.41992 0.94,0.72 2.00008,1.6207 2.58008,2.2207 l 0.79883,-0.96094 c -0.56,-0.54 -1.77875,-1.51922 -2.71875,-2.19922 0.66,-1.04 1.19852,-2.23992 1.47852,-2.91992 0.08,-0.24 0.19984,-0.54125 0.33984,-0.78125 l -1.21875,-0.45898 z m 61.33984,0.0195 c 0.52,0 0.90039,0.37937 0.90039,0.85937 0,0.5 -0.38039,0.88086 -0.90039,0.88086 -0.48,0 -0.85937,-0.38086 -0.85937,-0.88086 0,-0.48 0.37937,-0.85937 0.85937,-0.85937 z m -7.43945,0.2207 c 0.06,0.38 0.0801,0.67899 0.0801,0.95899 l 0,5.54101 c 0,0.96 0.45844,1.50016 1.39844,1.66016 0.42,0.08 1.04015,0.11914 1.66015,0.11914 1.22,0 2.55961,-0.0798 3.59961,-0.25977 l 0,-1.24023 c -0.92,0.24 -2.37859,0.35937 -3.55859,0.35937 -0.54,0 -0.96125,-0.0396 -1.28125,-0.0996 -0.5,-0.08 -0.67969,-0.23937 -0.67969,-0.85937 l 0,-1.90039 c 1.3,-0.34 2.90016,-0.80031 4.16016,-1.32031 0.34,-0.1 0.67961,-0.25993 1.09961,-0.41993 l -0.58008,-1.11914 c -0.36,0.24 -0.69906,0.3986 -1.03906,0.5586 -0.92,0.38 -2.42063,0.88117 -3.64063,1.20117 l 0,-2.2207 c 0,-0.32 0.0201,-0.59899 0.0801,-0.95899 l -1.29883,0 z m -9.10156,0.29883 c 0.02,0.2 0.0606,0.54031 0.0605,0.82031 0,1.12 0.001,2.91938 -0.29882,3.85938 -0.32,0.98 -0.86024,1.70039 -1.74024,2.40039 l 0.95899,0.7207 c 0.88,-0.74 1.55984,-1.75937 1.83984,-2.85937 0.3,-1.02 0.33984,-3.0011 0.33984,-4.1211 0,-0.3 0.0405,-0.70031 0.0606,-0.82031 l -1.2207,0 z m 2.68164,0 c 0.02,0.08 0.0801,0.46031 0.0801,0.82031 l 0,5.85938 c 0,0.18 -0.0201,0.42008 -0.0801,0.58008 l 0.63867,0.52148 c 0.1,-0.06 0.20086,-0.15977 0.38086,-0.25977 1.14,-0.56 2.6,-1.68039 3.5,-2.90039 l -0.64063,-0.91992 c -0.77999,1.14 -1.85921,1.97992 -2.69921,2.41992 l 0,-5.28125 c 0,-0.38 0.0586,-0.75984 0.0586,-0.83984 l -1.23828,0 z m -26.60156,0.0215 -0.74024,0.29883 c 0.34,0.44 0.70047,1.05961 0.98047,1.59961 l 0.74023,-0.32031 c -0.27999,-0.5 -0.70046,-1.15813 -0.98046,-1.57813 z m 100,0 -0.74024,0.29883 c 0.34,0.44 0.70047,1.05961 0.98047,1.59961 l 0.74023,-0.32031 c -0.27998,-0.5 -0.70046,-1.15813 -0.98046,-1.57813 z m -26.85938,0.11915 0,1.24023 c 0.22,-0.02 0.76016,-0.0605 1.16016,-0.0605 l 5.51953,0 c -0.44,0.72 -1.59883,2.14016 -2.79883,3.16016 -0.68,-0.56 -1.48039,-1.12086 -1.90039,-1.38086 l -0.86133,0.74023 c 0.64,0.44 1.72133,1.20125 2.36133,1.78125 0.7,0.66 1.55953,1.50008 2.01953,2.08008 l 0.91992,-0.82031 c -0.42,-0.48 -1.1007,-1.13969 -1.7207,-1.67969 1.38,-1.16 2.78102,-2.90055 3.54102,-4.06054 0.08,-0.16001 0.16031,-0.26086 0.32031,-0.38086 l -0.67969,-0.61914 c -0.14,0.04 -0.38016,0.0801 -0.66016,0.0801 l -6.06054,0 c -0.36,0 -0.86016,-0.0401 -1.16016,-0.0801 z m -19.91797,0.21874 0,3.85743 1.20117,0 0,-2.82227 4.94141,0 c -0.0977,1.20443 -0.33854,2.19727 -0.72266,2.97852 -0.65755,1.34765 -1.86523,2.35026 -3.62304,3.00781 l 1.00586,0.89844 c 1.39323,-0.69011 2.41862,-1.46485 3.07617,-2.32422 0.89193,-1.15235 1.39974,-2.82552 1.52344,-5.01953 l -0.64454,-0.57618 -6.75781,0 z m -37.58398,0.0996 c -0.2725,0.0175 -0.52836,0.20102 -0.81836,0.54102 -0.64,0.76 -1.61867,1.98148 -2.13867,2.52148 -0.28,0.26 -0.52032,0.47922 -0.82032,0.69922 l 0.97852,1 c 0.12,-0.2 0.38156,-0.54031 0.60156,-0.82031 0.46,-0.56 1.44,-1.79945 2,-2.43945 0.2,-0.24 0.29961,-0.30055 0.59961,-0.0605 0.5,0.46 1.17899,1.16102 1.95899,2.04102 0.7,0.8 1.6,1.83898 2.5,2.95898 l 0.78125,-1 c -1.04,-1.18 -1.91961,-2.11984 -2.59961,-2.83984 -0.64,-0.66 -1.5611,-1.62063 -2.1211,-2.14063 -0.36,-0.33 -0.64937,-0.47844 -0.92187,-0.46094 z m -16.81836,0.002 -0.74024,0.29883 c 0.32,0.42 0.72047,1.10109 0.98047,1.62109 l 0.74024,-0.32031 c -0.26,-0.48 -0.68047,-1.17961 -0.98047,-1.59961 z m 100,0 -0.74024,0.29883 c 0.32,0.42 0.72047,1.10109 0.98047,1.62109 l 0.74024,-0.32031 c -0.26,-0.48 -0.68047,-1.17961 -0.98047,-1.59961 z m -102.94141,0.34765 c -0.2725,0.0125 -0.52836,0.19125 -0.81836,0.53125 -0.64,0.76 -1.64062,2.00149 -2.14062,2.52149 -0.28,0.28 -0.51985,0.49875 -0.83985,0.71875 l 0.98047,1 c 0.14,-0.22 0.39961,-0.54031 0.59961,-0.82031 0.46,-0.58 1.44,-1.79899 2,-2.45899 0.22,-0.24 0.31961,-0.28101 0.59961,-0.041 0.52,0.46 1.18094,1.16054 1.96094,2.06054 0.72,0.8 1.63906,1.73992 2.53906,2.91992 l 0.74024,-1 c -1.02,-1.16 -1.89961,-2.08031 -2.59961,-2.82031 -0.62,-0.64 -1.53961,-1.63867 -2.09961,-2.13867 -0.36,-0.33 -0.64938,-0.48516 -0.92188,-0.47266 z m 100,0 c -0.2725,0.0125 -0.52836,0.19125 -0.81836,0.53125 -0.64,0.76 -1.64062,2.00149 -2.14062,2.52149 -0.28,0.28 -0.51985,0.49875 -0.83985,0.71875 l 0.98047,1 c 0.14,-0.22 0.39961,-0.54031 0.59961,-0.82031 0.46,-0.58 1.44,-1.79899 2,-2.45899 0.22,-0.24 0.31961,-0.28101 0.59961,-0.041 0.52,0.46 1.18094,1.16054 1.96094,2.06054 0.72,0.8 1.63906,1.73992 2.53906,2.91992 l 0.74024,-1 c -1.02,-1.16 -1.89961,-2.08031 -2.59961,-2.82031 -0.62,-0.64 -1.53961,-1.63867 -2.09961,-2.13867 -0.36,-0.33 -0.64938,-0.48516 -0.92188,-0.47266 z m -9.33789,0.0723 -0.93945,0.33984 c 0.24,0.48 0.61976,1.60063 0.75976,2.14063 l 0.95899,-0.33985 c -0.14,-0.5 -0.5793,-1.72062 -0.7793,-2.14062 z m -20.39844,0.29883 -0.91796,0.45898 c 0.39062,0.67057 0.70312,1.38999 0.9375,2.1582 l 0.95703,-0.49804 c -0.33854,-0.93099 -0.66407,-1.63737 -0.97657,-2.11914 z m 22.85743,0.0801 c -0.18,1.28 -0.69891,2.5614 -1.37891,3.4414 -0.84,1.08 -2.02055,1.83922 -3.06055,2.19922 l 0.90039,0.80078 c 0.86,-0.4 2.11954,-1.20039 3.01953,-2.40039 0.70001,-0.94 1.18047,-2.11969 1.48047,-3.17969 0.04,-0.1 0.10071,-0.28007 0.22071,-0.58007 l -1.18164,-0.28125 z m -4.81836,0.18164 -0.92188,0.39843 c 0.22,0.42 0.70086,1.60118 0.88086,2.20118 l 0.93945,-0.38086 c -0.24,-0.66 -0.65843,-1.67875 -0.89843,-2.21875 z m -15.5,0.13867 c -0.22136,1.21094 -0.54037,2.16471 -0.95703,2.86133 -0.75521,1.23698 -2.00847,2.10286 -3.75977,2.59765 l 0.87891,0.83985 c 1.32812,-0.4362 2.36653,-1.0677 3.11523,-1.89454 0.8724,-0.95703 1.50065,-2.34374 1.88477,-4.16015 l -1.16211,-0.24414 z m -4.77539,0.15625 -0.90821,0.45898 c 0.36459,0.63151 0.6543,1.34115 0.86914,2.12891 l 0.9961,-0.48828 c -0.24089,-0.69662 -0.5599,-1.39649 -0.95703,-2.09961 z m -61.20508,1.22461 0,1.25976 c 0.32,-0.02 0.85945,-0.0605 1.43945,-0.0605 l 5.64063,0 c 0.46,0 0.86007,0.0605 1.08007,0.0605 l 0,-1.25976 c -0.24,0.04 -0.56007,0.0801 -1.08007,0.0801 l -5.64063,0 c -0.58,0 -1.13945,-0.0401 -1.43945,-0.0801 z m 100,0 0,1.25976 c 0.32,-0.02 0.85945,-0.0605 1.43945,-0.0605 l 5.64063,0 c 0.46,0 0.86007,0.0605 1.08007,0.0605 l 0,-1.25976 c -0.24,0.04 -0.56007,0.0801 -1.08007,0.0801 l -5.64063,0 c -0.58,0 -1.13945,-0.0401 -1.43945,-0.0801 z m -62.24024,17.84179 c -0.8,0 -1.46093,0.63899 -1.46093,1.45899 0,0.82 0.66093,1.48047 1.46093,1.48047 0.82,0 1.48047,-0.66047 1.48047,-1.48047 0,-0.82 -0.66047,-1.45899 -1.48047,-1.45899 z m -59.43945,0.25977 -0.7207,0.30078 c 0.34,0.44 0.67945,1.06008 0.93945,1.58008 l 0.74023,-0.32031 c -0.25999,-0.5 -0.67898,-1.16055 -0.95898,-1.56055 z m 59.43945,0.33984 c 0.52,0 0.90039,0.37938 0.90039,0.85938 0,0.5 -0.38039,0.88086 -0.90039,0.88086 -0.48,0 -0.85937,-0.38086 -0.85937,-0.88086 0,-0.48 0.37937,-0.85938 0.85937,-0.85938 z m 59.37891,0 c -0.8,0 -1.41992,0.61993 -1.41992,1.41993 0,0.8 0.61992,1.41992 1.41992,1.41992 0.8,0 1.41992,-0.61992 1.41992,-1.41992 0,-0.8 -0.61992,-1.41993 -1.41992,-1.41993 z m -120,0.0801 -0.69922,0.30078 c 0.32,0.44 0.67945,1.10008 0.93945,1.58008 l 0.72071,-0.32031 c -0.24,-0.46 -0.66094,-1.14055 -0.96094,-1.56055 z m 14.26172,0 c 0,0.22 -0.0205,0.5393 -0.0606,0.7793 -0.14,0.88 -0.48047,2.92 -0.48047,4.5 0,1.46 0.18039,2.72 0.40039,3.5 l 1.03907,-0.0801 -0.0586,-0.39844 c 0,-0.14 0.0386,-0.36 0.0586,-0.5 0.12,-0.54 0.47976,-1.57984 0.75976,-2.33984 l -0.59961,-0.5 c -0.18,0.44 -0.38,0.91992 -0.5,1.41992 -0.06,-0.48 -0.0586,-0.72172 -0.0586,-1.26172 0,-1.22 0.31953,-3.27883 0.51953,-4.29883 0.06,-0.2 0.13922,-0.54117 0.19922,-0.70117 l -1.21875,-0.11914 z m 38.91992,0.14063 c 0.06,0.38 0.0801,0.67898 0.0801,0.95898 l 0,5.54102 c 0,0.96 0.45844,1.50015 1.39844,1.66015 0.42,0.08 1.04015,0.11914 1.66015,0.11914 1.22,0 2.55961,-0.0798 3.59961,-0.25976 l 0,-1.24024 c -0.92,0.24 -2.37859,0.35938 -3.55859,0.35938 -0.54,0 -0.96125,-0.0396 -1.28125,-0.0996 -0.5,-0.08 -0.67969,-0.23938 -0.67969,-0.85938 l 0,-1.90039 c 1.3,-0.34 2.90016,-0.80031 4.16016,-1.32031 0.34,-0.1 0.67961,-0.25992 1.09961,-0.41992 l -0.58008,-1.11914 c -0.36,0.24 -0.69906,0.39859 -1.03906,0.55859 -0.92,0.38 -2.42063,0.88117 -3.64063,1.20117 l 0,-2.2207 c 0,-0.32 0.0201,-0.59898 0.0801,-0.95898 l -1.29883,0 z m -30.96094,0.11914 c -1.28,0.18 -3.26,0.30015 -5,0.16015 l 0,1.01953 c 0.76,0.04 1.56032,0.04 2.32032,0 l 0,1.56055 c -0.8,0.02 -1.64047,-5.3e-4 -2.48047,-0.0606 l 0,1.02149 c 0.82,0.04 1.68047,0.0395 2.48047,0.0195 0.02,0.5 0.0401,1.03906 0.0801,1.53906 -0.28,-0.04 -0.53984,-0.0586 -0.83984,-0.0586 -1.5,0.02 -2.17969,0.83961 -2.17969,1.59961 0,1.1 0.97922,1.61914 2.19922,1.61914 1.2,0 1.89992,-0.52 1.91992,-1.5 l 0,-0.29883 c 0.56,0.32 1.09961,0.73828 1.59961,1.23828 l 0.56055,-0.95898 c -0.5,-0.46 -1.2407,-1.04086 -2.2207,-1.38086 -0.02,-0.58 -0.0601,-1.21836 -0.0801,-1.81836 0.7,-0.04 1.34086,-0.10016 1.88086,-0.16016 l 0,-1.02148 c -0.56,0.06 -1.20086,0.14164 -1.88086,0.18164 l 0,-1.56055 c 0.62,-0.04 1.18062,-0.0811 1.64062,-0.12109 l 0,-1.01953 z m 101.83985,0 -0.71875,0.90039 c 0.88,0.52 2.09875,1.46 2.71875,2 l 0.74023,-0.91992 c -0.62,-0.56 -1.96023,-1.50047 -2.74023,-1.98047 z m -80.16016,0.20117 c 0.02,0.22 0.0606,0.55984 0.0606,0.83984 0,1.12 -7.8e-4,2.91985 -0.30078,3.83985 -0.32,1 -0.86024,1.72039 -1.74024,2.40039 l 0.96094,0.73828 c 0.88,-0.74 1.55984,-1.75938 1.83984,-2.85938 0.3,-1.02 0.33985,-3.02062 0.33985,-4.14062 0,-0.28 0.0405,-0.69836 0.0605,-0.81836 l -1.2207,0 z m 2.67969,0.0195 c 0.02,0.08 0.0801,0.44031 0.0801,0.82031 l 0,5.85938 c 0,0.18 -0.0201,0.40055 -0.0801,0.56055 l 0.64062,0.53906 c 0.1,-0.08 0.20086,-0.17977 0.38086,-0.25977 1.14,-0.58 2.6,-1.67992 3.5,-2.91992 l -0.64062,-0.90039 c -0.78,1.14 -1.85922,1.97992 -2.69922,2.41992 l 0,-5.2793 c 0,-0.38 0.0586,-0.75984 0.0586,-0.83984 l -1.24023,0 z m 73.41992,0 c 0.48,0 0.86133,0.37938 0.86133,0.85938 0,0.48 -0.38133,0.85937 -0.86133,0.85937 -0.48,0 -0.83984,-0.37937 -0.83984,-0.85937 0,-0.48 0.35984,-0.85938 0.83984,-0.85938 z m -86.63867,0.16016 0,1.25976 c 0.24,-0.02 0.83875,-0.0605 1.21875,-0.0605 l 4.82031,0 0,4.33984 -4.87891,0 c -0.44,0 -0.96023,-0.0596 -1.24023,-0.0996 l 0,1.2793 c 0.36,-0.04 0.81977,-0.0391 1.25977,-0.0391 l 4.85937,0 -0.0195,0.5 1.2207,0 c 0,0 -0.041,-0.70054 -0.041,-1.06054 l 0,-5.17969 c 0,-0.24 0.021,-0.66039 0.041,-0.90039 -0.22,0.02 -0.60133,0.0195 -0.86133,0.0195 l -5.16015,0 c -0.34,0 -0.83875,-0.0186 -1.21875,-0.0586 z m 40.02148,0.1582 0,3.85742 1.20117,0 0,-2.82226 4.94141,0 c -0.0977,1.20442 -0.33854,2.19726 -0.72266,2.97851 -0.65755,1.34766 -1.86523,2.35026 -3.62304,3.00781 l 1.00586,0.89844 c 1.39323,-0.6901 2.41862,-1.46484 3.07617,-2.32422 0.89193,-1.15234 1.39974,-2.82552 1.52344,-5.01953 l -0.64454,-0.57617 -6.75781,0 z m 20,0 0,3.85742 1.20117,0 0,-2.82226 4.94141,0 c -0.0977,1.20442 -0.33854,2.19726 -0.72266,2.97851 -0.65755,1.34766 -1.86523,2.35026 -3.62304,3.00781 l 1.00586,0.89844 c 1.39323,-0.6901 2.41862,-1.46484 3.07617,-2.32422 0.89193,-1.15234 1.39974,-2.82552 1.52344,-5.01953 l -0.64454,-0.57617 -6.75781,0 z m -99.80273,0.26172 0,1.17969 c 0.28,-0.02 0.74156,-0.0606 1.10156,-0.0606 l 3.85938,0 c 0.3,0 0.77961,0.0406 1.0996,0.0606 l 0,-1.17969 c -0.29999,0.04 -0.7996,0.0586 -1.0996,0.0586 l -3.88086,0 c -0.34,0 -0.76008,-0.0386 -1.08008,-0.0586 z m 122.41015,0.16406 c -0.275,0.015 -0.52859,0.19516 -0.80859,0.53516 -0.64,0.76 -1.64016,1.97953 -2.16016,2.51953 -0.28,0.28 -0.50031,0.4807 -0.82031,0.7207 l 0.98047,1 c 0.14,-0.22 0.39961,-0.54031 0.59961,-0.82031 0.46,-0.58 1.44,-1.79899 2,-2.45898 0.22,-0.24001 0.31961,-0.28102 0.59961,-0.041 0.5,0.46 1.18094,1.16055 1.96094,2.06055 0.7,0.8 1.63906,1.74039 2.53906,2.90039 l 0.74023,-0.98047 c -1.02,-1.18 -1.89961,-2.08031 -2.59961,-2.82031 -0.62,-0.66 -1.54156,-1.64016 -2.10156,-2.16016 -0.36,-0.32 -0.65469,-0.47008 -0.92969,-0.45508 z m -29.6875,0.39453 -0.91796,0.45899 c 0.39062,0.67057 0.70312,1.38997 0.9375,2.1582 l 0.95703,-0.49805 c -0.33854,-0.93099 -0.66407,-1.63737 -0.97657,-2.11914 z m 20,0 -0.91796,0.45899 c 0.39062,0.67057 0.70312,1.38997 0.9375,2.1582 l 0.95703,-0.49805 c -0.33854,-0.93099 -0.66407,-1.63737 -0.97657,-2.11914 z m -17.46093,0.40039 c -0.22136,1.21094 -0.54037,2.16472 -0.95703,2.86133 -0.75521,1.23698 -2.00847,2.10287 -3.75977,2.59766 l 0.87891,0.83984 c 1.32812,-0.4362 2.36653,-1.06771 3.11523,-1.89453 0.8724,-0.95703 1.50065,-2.34375 1.88477,-4.16016 l -1.16211,-0.24414 z m 20,0 c -0.22136,1.21094 -0.54037,2.16472 -0.95703,2.86133 -0.75521,1.23698 -2.00847,2.10287 -3.75977,2.59766 l 0.87891,0.83984 c 1.32812,-0.4362 2.36653,-1.06771 3.11523,-1.89453 0.8724,-0.95703 1.50065,-2.34375 1.88477,-4.16016 l -1.16211,-0.24414 z m 21.55859,0.041 c -0.62,1.26 -1.79975,2.52047 -3.25977,3.48047 -0.95999,0.62 -2.36031,1.11992 -3.82031,1.41992 l 0.64063,1.08008 c 1.22,-0.26 2.82031,-0.86102 3.82031,-1.54102 1.56,-1.04 2.65945,-2.18 3.43945,-3.5 l -0.82031,-0.93945 z m -46.33398,0.11523 -0.90821,0.45899 c 0.36459,0.63151 0.6543,1.34114 0.86914,2.1289 l 0.9961,-0.48828 c -0.24089,-0.69661 -0.5599,-1.39648 -0.95703,-2.09961 z m 20,0 -0.90821,0.45899 c 0.36459,0.63151 0.6543,1.34114 0.86914,2.1289 l 0.9961,-0.48828 c -0.24089,-0.69661 -0.5599,-1.39648 -0.95703,-2.09961 z m -111.68555,1.46485 0,1.16015 c 0.28,-0.02 0.69953,-0.041 1.01953,-0.041 l 2.90039,0 c -0.04,0.94 -0.15914,1.76094 -0.61914,2.46094 -0.44,0.69998 -1.20016,1.27921 -2.16016,1.69921 l 1.01954,0.74024 c 1.04,-0.5 1.84023,-1.32008 2.24023,-2.08008 0.42,-0.76 0.59867,-1.70031 0.63867,-2.82031 l 2.64063,0 c 0.28,0 0.69992,0.021 0.91992,0.041 l 0,-1.16015 c -0.24,0.04 -0.67992,0.0586 -0.91992,0.0586 l -6.66016,0 c -0.32,0 -0.73953,-0.0386 -1.01953,-0.0586 z m 26.38086,2.71875 c 0.3,0 0.59844,0.0411 0.89844,0.12109 l 0,0.33984 c 0,0.56 -0.21946,0.87891 -0.93946,0.87891 -0.76,0 -1.11914,-0.27922 -1.11914,-0.69922 0,-0.36 0.48016,-0.64062 1.16016,-0.64062 z m 102.25976,13.48047 0,2.17968 -7.54101,0 0,4.67969 1.46094,0 0,-3.2793 13.67968,0 0,3.2793 1.51953,0 0,-4.67969 -7.58007,0 0,-2.17968 -1.53907,0 z m -19.98046,0.0195 0,3.38086 -8.14063,0 0,1.45898 2.94141,0 c 1.14,3.18 2.69976,5.88055 4.75976,8.06055 -2.14,1.76 -4.7614,3.04093 -7.9414,3.96094 0.32,0.34 0.8014,1.05992 0.9414,1.41992 3.22,-1.04 5.91914,-2.42078 8.11914,-4.30078 2.2,1.98 4.91977,3.41929 8.25977,4.27929 0.22,-0.42 0.70055,-1.09945 1.06055,-1.43945 -3.24,-0.76 -5.9411,-2.11898 -8.1211,-3.95898 2.08,-2.10001 3.6618,-4.74149 4.8418,-8.02149 l 3.08008,0 0,-1.45898 -8.30078,0 0,-3.38086 -1.5,0 z m -25.25977,0.0215 c -0.42,1.1 -1.12125,2.59875 -1.78125,3.71875 -0.2,-0.18 -0.39961,-0.35953 -0.59961,-0.51953 l -0.75977,0.96094 c 0.94,0.84 2.0211,1.9789 2.6211,2.8789 -0.44,0.64 -0.9018,1.2593 -1.3418,1.7793 -0.46,0.02 -0.91836,0.041 -1.31836,0.041 l 0.11914,1.33984 3.25977,-0.16016 0,8.24024 1.36133,0 0,-8.32031 1.71875,-0.0996 c 0.18,0.42 0.30086,0.80062 0.38086,1.14062 l 1.17968,-0.56055 c -0.28,-1.08 -1.14045,-2.78054 -1.98047,-4.06054 l -1.0996,0.48047 c 0.34,0.54 0.68046,1.15929 0.98046,1.77929 -1.1,0.04 -2.20117,0.10063 -3.20117,0.14063 1.38,-1.72 2.98063,-4.08094 4.14063,-5.96094 l -1.2793,-0.55859 c -0.56,1.08 -1.32062,2.37867 -2.14062,3.63867 -0.32,-0.42 -0.74071,-0.89891 -1.22071,-1.37891 0.76,-1.08 1.60125,-2.67953 2.28125,-4.01953 l -1.32031,-0.5 z m -80.24023,0.23828 -1.24024,0.30078 c 0.14,0.28 0.21985,0.51985 0.33984,0.83985 0.06,0.22 0.21993,0.72086 0.41993,1.38086 -0.72,0.14 -1.25946,0.23976 -1.43946,0.25976 -0.38,0.08 -0.70109,0.10063 -1.12109,0.14063 l 0.30078,1.13867 c 0.36,-0.08 1.40055,-0.27953 2.56055,-0.51953 0.48,1.72 1.07875,3.78031 1.21875,4.32031 0.08,0.3 0.1607,0.63898 0.2207,0.95898 l 1.24024,-0.33984 c -0.12,-0.28 -0.26032,-0.65992 -0.32032,-0.91992 -0.18,-0.56 -0.73976,-2.50023 -1.25976,-4.24024 1.56,-0.3 3.04031,-0.59867 3.32031,-0.63867 -0.44,0.76 -1.07992,1.61891 -1.91992,2.37891 l 1.01953,0.58008 c 0.94,-0.9 1.98055,-2.63977 2.56055,-3.75977 l -0.82032,-0.51953 c -0.12,0.06 -0.32046,0.12016 -0.48047,0.16016 -0.39999,0.1 -2.32046,0.45929 -3.98046,0.77929 l -0.41993,-1.43945 c -0.12,-0.32 -0.15921,-0.60133 -0.19921,-0.86133 z m 86.01953,0.88086 0,15.19922 -2.11914,0 0,1.36133 11.63867,0 0,-1.36133 -1.53906,0 0,-15.19922 -7.98047,0 z m 1.43945,1.33985 5.08008,0 0,3.67968 -5.08008,0 0,-3.67968 z m -80.33984,0.93945 0,1.26172 c 0.32,-0.02 0.8614,-0.0606 1.4414,-0.0606 l 5.63867,0 c 0.46,0 0.86008,0.0606 1.08008,0.0606 l 0,-1.26172 c -0.24,0.04 -0.56008,0.0801 -1.08008,0.0801 l -5.63867,0 c -0.58,0 -1.1414,-0.0401 -1.4414,-0.0801 z m 94.82031,1.41992 8.56055,0 c -1.02,2.82 -2.41977,5.12047 -4.25977,6.98047 -1.9,-1.94 -3.32078,-4.30047 -4.30078,-6.98047 z m 28.83984,0.82031 -0.32031,0.0801 -9.47852,0 0,1.38086 8.09961,0 c -0.8,0.76 -1.82031,1.53914 -2.82031,2.11914 l -0.74023,0 0,1.48047 -7.75977,0 0,1.41992 7.75977,0 0,4.25977 c 0,0.28 -0.099,0.36086 -0.45899,0.38086 -0.34,0.02 -1.64,0.0185 -3,-0.0215 0.26,0.4 0.55969,1.04094 0.67969,1.46094 1.66,0 2.72039,-0.0202 3.40039,-0.24023 0.7,-0.24 0.93945,-0.68055 0.93945,-1.56055 l 0,-4.2793 7.7793,0 0,-1.41992 -7.7793,0 0,-0.61914 c 1.7,-0.94 3.47969,-2.34117 4.67969,-3.70117 l -0.98047,-0.74024 z m -43.32031,1.83985 5.08008,0 0,3.68164 -5.08008,0 0,-3.68164 z m -3.83984,3.75976 -1.11914,0.36133 c 0.54,1.24 1.09929,2.83891 1.27929,3.87891 l 1.17969,-0.39844 c -0.18,-1.04 -0.75984,-2.6218 -1.33984,-3.8418 z m -5.45899,0.0801 c -0.22,1.76 -0.64078,3.54172 -1.30078,4.76172 0.32,0.1 0.92016,0.37859 1.16016,0.55859 0.66,-1.28 1.13992,-3.20007 1.41992,-5.08008 l -1.2793,-0.24023 z m 9.29883,1.18164 5.08008,0 0,3.81836 -5.08008,0 0,-3.81836 z"
       id="flowRoot4148"
       inkscape:connector-curvature="0" />
    <path
       style="font-style:normal;font-weight:normal;font-size:20px;line-height:125%;font-family:sans-serif;letter-spacing:0px;word-spacing:0px;writing-mode:tb-rl;fill:#008080;fill-opacity:1;stroke:none;stroke-width:1px;stroke-linecap:butt;stroke-linejoin:miter;stroke-opacity:1"
       d="m 295.28906,414.03711 -0.69336,0.41992 c 0.40365,0.44922 0.72266,0.93425 0.95703,1.45508 l 0.74219,-0.49805 c -0.37109,-0.58594 -0.70638,-1.04492 -1.00586,-1.37695 z m -1.25976,0.70312 -0.67383,0.43946 c 0.3125,0.35807 0.63802,0.8431 0.97656,1.45508 l 0.74219,-0.49805 c -0.21484,-0.36458 -0.56315,-0.83008 -1.04492,-1.39649 z m 30.32226,0.41602 -0.70117,0.30078 c 0.34,0.42 0.68094,1.08008 0.96094,1.58008 l 0.71875,-0.33984 c -0.24,-0.46 -0.65852,-1.12102 -0.97852,-1.54102 z m -86.02148,0.0801 -0.5586,0.91992 c 0.72,0.38 1.85946,1.08 2.43946,1.5 l 0.61914,-0.93945 c -0.58,-0.42 -1.7,-1.06047 -2.5,-1.48047 z m 51.00195,0.1582 -0.72265,0.95703 c 0.83332,0.42969 1.5625,0.94401 2.1875,1.54297 l 0.73242,-1.01562 c -0.78776,-0.67058 -1.52019,-1.16537 -2.19727,-1.48438 z m -39.2207,0.002 c -0.06,0.3 -0.14024,0.60079 -0.24024,0.80079 -0.42,0.92 -1.45937,2.53828 -3.35937,3.73828 l 0.91992,0.76172 c 1.2,-0.82 2.11977,-1.86032 2.75977,-2.82032 l 3.25976,0 c -0.16,0.7 -0.64125,1.68008 -1.28125,2.58008 -0.78,-0.52 -1.56,-1.01976 -2,-1.25976 l -0.67969,0.77929 c 0.48,0.28 1.24,0.7793 2,1.2793 -1.12,1.16 -2.42031,2.02047 -3.82031,2.48047 l 0.98047,0.85937 c 1.38,-0.54 2.71977,-1.51968 3.75977,-2.67968 0.46,0.34 0.86156,0.66084 1.10156,0.88086 l 0.71875,-0.9004 c -0.24,-0.18 -0.65867,-0.48078 -1.13867,-0.80078 0.74,-1.02 1.29914,-2.27875 1.61914,-3.21875 0.06,-0.2 0.16078,-0.48015 0.30078,-0.66015 L 254.25,416.75586 c -0.16,0.1 -0.41828,0.16016 -0.73828,0.16016 l -2.74024,0 0.17969,-0.33985 c 0.12,-0.22 0.25899,-0.4793 0.45899,-0.77929 l -1.29883,-0.4004 z m 73.09961,0.17969 -0.72071,0.30078 c 0.32,0.44 0.70141,1.09961 0.94141,1.59961 l 0.73828,-0.32031 c -0.26,-0.48 -0.67898,-1.18008 -0.95898,-1.58008 z m -100.61914,0.22071 c -0.32,1.51999 -0.96094,3.05882 -1.96094,4.29882 -0.94,1.18 -2.35906,2.28133 -4.03906,2.86133 l 0.91992,0.97852 c 1.54,-0.66 3.13961,-1.91821 4.09961,-3.15821 0.9,-1.14 1.5189,-2.52007 1.8789,-3.58007 0.08,-0.28 0.24133,-0.70102 0.36133,-1.04102 l -1.25976,-0.35937 z m 60,0 c -0.32,1.51999 -0.96094,3.05882 -1.96094,4.29882 -0.94,1.18 -2.35906,2.28133 -4.03906,2.86133 l 0.91992,0.97852 c 1.54,-0.66 3.13961,-1.91821 4.09961,-3.15821 0.9,-1.14 1.5189,-2.52007 1.8789,-3.58007 0.08,-0.28 0.24133,-0.70102 0.36133,-1.04102 l -1.25976,-0.35937 z m 36.43945,0.17968 c 0.04,0.24 0.0801,0.66039 0.0801,0.90039 0,0.34 -0.021,0.63946 -0.041,0.93946 l -1.59961,0 c -0.4,0 -0.89929,-0.0405 -1.27929,-0.0606 l 0,1.16016 c 0.44,-0.04 0.85929,-0.0391 1.27929,-0.0391 l 1.46094,0 c -0.32,2.06 -1.04101,3.16008 -2.04102,4.08008 -0.25999,0.26 -0.67906,0.51922 -1.03906,0.69922 l 0.95899,0.85937 c 1.78,-1.3 2.84023,-2.73867 3.24023,-5.63867 l 2.75977,0 c 0,1.1 -0.11946,3.23907 -0.43946,4.03907 -0.12,0.26 -0.28007,0.32031 -0.58007,0.32031 -0.38,0 -1,-0.10024 -1.5,-0.24024 l 0.0605,1.17969 c 0.5,0.08 1.2593,0.16016 1.7793,0.16016 0.54,0 0.94016,-0.19867 1.16016,-0.63867 0.48,-1.04 0.57914,-3.94086 0.61914,-4.88086 0.02,-0.22 0.0401,-0.48016 0.0801,-0.66016 l -0.61914,-0.40039 c -0.24,0.02 -0.49976,0.0606 -0.75976,0.0606 l -2.46094,0 c 0.04,-0.3 0.0405,-0.62094 0.0605,-0.96094 0.02,-0.24 0.0405,-0.63891 0.0605,-0.87891 l -1.24023,0 z m -122,0.85938 0,1.25976 c 0.24,-0.02 0.83875,-0.0586 1.21875,-0.0586 l 4.82031,0 0,4.33984 -4.8789,0 c -0.44,0 -0.94071,-0.0596 -1.22071,-0.0996 l 0,1.2793 c 0.34,-0.04 0.82024,-0.041 1.24024,-0.041 l 4.85937,0 -0.0195,0.5 1.24024,0 c 0,0 -0.041,-0.69859 -0.041,-1.05859 l 0,-5.17969 c 0,-0.24 0.0215,-0.66039 0.0215,-0.90039 -0.2,0.02 -0.60132,0.0195 -0.86132,0.0195 l -5.16016,0 c -0.32,0 -0.83875,-0.0205 -1.21875,-0.0605 z m 47.29883,0.83984 c -0.96,1.62 -2.25899,2.98047 -3.95899,3.98047 -1.1,0.64 -2.30054,1.0593 -3.56054,1.2793 l 0.62109,1.08007 c 0.98,-0.24 2.43953,-0.73843 3.51953,-1.39843 1.72,-1.04 3.05953,-2.32133 4.01953,-3.86133 l -0.64062,-1.08008 z m 51.03711,0.1211 c -1.76433,2.76692 -4.28386,4.52148 -7.5586,5.26367 l 0.66407,1.15234 c 3.3789,-0.87891 5.88541,-2.66601 7.51953,-5.36133 l -0.625,-1.05468 z m -7.17774,0.0586 -0.67383,0.85937 c 0.73569,0.37761 1.4681,0.91146 2.19727,1.60157 l 0.74219,-0.9375 c -0.77474,-0.65756 -1.52995,-1.16537 -2.26563,-1.52344 z m -51.3789,0.0801 -0.53907,0.98047 c 0.74,0.3 1.94008,0.90078 2.58008,1.30078 l 0.53906,-1 c -0.56,-0.34 -1.86007,-0.98125 -2.58007,-1.28125 z m -41.52149,18.02343 -0.69336,0.41993 c 0.40365,0.44921 0.72266,0.93424 0.95703,1.45507 l 0.74219,-0.49804 c -0.37109,-0.58594 -0.70638,-1.04492 -1.00586,-1.37696 z m -1.25976,0.70313 -0.67383,0.43945 c 0.3125,0.35808 0.63802,0.8431 0.97656,1.45508 l 0.74219,-0.49805 c -0.21484,-0.36458 -0.56315,-0.83007 -1.04492,-1.39648 z m 76.52148,0.47656 c -0.08,0.26 -0.20078,0.63985 -0.30078,0.83985 -0.48,0.98 -1.2982,2.36054 -3.1582,3.56054 l 0.89843,0.75977 c 1.08,-0.74 1.88,-1.60094 2.5,-2.46094 l 3.10157,0 c -0.22,0.84 -0.7611,1.92039 -1.6211,2.90039 -1.18,1.34 -2.44,2.14063 -4,2.64063 l 1.04102,0.90039 c 1.5,-0.58 2.83992,-1.56039 3.91992,-2.90039 0.9,-1.08 1.55945,-2.33961 1.93945,-3.59961 0.06,-0.2 0.19883,-0.50016 0.29883,-0.66016 l -0.73828,-0.44141 c -0.16,0.1 -0.42117,0.14063 -0.70117,0.14063 l -2.59961,0 c 0.1,-0.14 0.16023,-0.29945 0.24023,-0.43945 0.08,-0.2 0.31899,-0.59985 0.45899,-0.83985 l -1.2793,-0.40039 z m 27.7793,0.0195 -0.5586,0.91992 c 0.72,0.38003 1.85946,1.08002 2.43946,1.5 l 0.61914,-0.93945 c -0.58,-0.42 -1.7,-1.06047 -2.5,-1.48047 z m -108.99805,0.15821 -0.72265,0.95703 c 0.83332,0.42968 1.5625,0.94401 2.1875,1.54297 l 0.73242,-1.01563 c -0.78776,-0.67057 -1.52019,-1.16536 -2.19727,-1.48437 z m 120.7793,0.002 c -0.06,0.3 -0.14024,0.60078 -0.24024,0.80078 -0.42,0.92 -1.45937,2.53828 -3.35937,3.73828 l 0.91992,0.76172 c 1.2,-0.82 2.11977,-1.86031 2.75977,-2.82031 l 3.25976,0 c -0.16,0.7 -0.64125,1.68008 -1.28125,2.58008 -0.78,-0.52 -1.56,-1.01977 -2,-1.25977 l -0.67969,0.7793 c 0.48,0.28 1.24,0.77929 2,1.27929 -1.12,1.16 -2.42031,2.02047 -3.82031,2.48047 l 0.98047,0.85938 c 1.38,-0.54 2.71977,-1.51969 3.75977,-2.67969 0.46,0.34 0.86156,0.66086 1.10156,0.88086 l 0.71875,-0.90039 c -0.24,-0.18 -0.65867,-0.48078 -1.13867,-0.80078 0.74,-1.02 1.29914,-2.27875 1.61914,-3.21875 0.06,-0.2 0.16078,-0.48016 0.30078,-0.66016 L 314.25,438.67773 c -0.16,0.1 -0.41828,0.16016 -0.73828,0.16016 l -2.74024,0 0.17969,-0.33984 c 0.12,-0.22 0.25899,-0.4793 0.45899,-0.7793 l -1.29883,-0.40039 z m -51.96094,0.0391 c 0.02,0.7 -0.10023,1.50024 -0.24023,2.24024 -0.62,0.06 -1.1986,0.12109 -1.5586,0.12109 -0.32,0.02 -0.62092,0.02 -0.96094,0 l 0.0996,1.17969 c 0.28,-0.06 0.72094,-0.10063 0.96094,-0.14063 0.26,-0.02 0.71875,-0.0791 1.21875,-0.11914 -0.38,1.46 -1.15875,3.79875 -2.21875,5.21875 l 1.08008,0.46094 c 1.12,-1.78 1.85977,-4.24078 2.25977,-5.80078 0.44,-0.04 0.83961,-0.0586 1.0996,-0.0586 0.68001,0 1.03954,0.13907 1.01954,1.03907 -0.02,1.18 -0.13952,2.58078 -0.51954,3.30078 -0.19999,0.38 -0.43984,0.43945 -0.83984,0.43945 -0.3,0 -0.86031,-0.0802 -1.32031,-0.24023 l 0.16015,1.16015 c 0.34002,0.08 0.85977,0.16016 1.25977,0.16016 0.9,0 1.36117,-0.29953 1.70117,-1.01953 0.46,-0.92 0.63867,-2.62039 0.63867,-3.90039 0,-1.54 -0.91843,-1.96094 -1.89843,-1.96094 -0.24,0 -0.62055,0.0206 -1.06055,0.0605 0.1,-0.54 0.19977,-1.12039 0.25977,-1.40039 l 0.11914,-0.63868 -1.25977,-0.10156 z m -47.25977,0.44141 -1.03906,0.35937 c 0.3,0.62 0.77946,2.00016 0.93946,2.66016 l 1.06054,-0.38086 c -0.2,-0.6 -0.74092,-2.13867 -0.96094,-2.63867 z m 3.2793,0.43945 c -0.24,1.58 -0.87875,3.20078 -1.71875,4.30078 -1.04,1.3 -2.47976,2.23922 -3.75976,2.69922 l 0.93945,0.85938 c 1.06,-0.5 2.5807,-1.45946 3.7207,-2.93946 0.86,-1.16 1.43836,-2.60039 1.81836,-3.90039 0.04,-0.14 0.10024,-0.35922 0.24024,-0.69922 l -1.24024,-0.32031 z m -6.19922,0.25977 -1.01953,0.41992 c 0.28,0.52 0.87961,1.98023 1.09961,2.74023 l 1.06055,-0.43945 c -0.3,-0.8 -0.82063,-2.0807 -1.14063,-2.7207 z m 55.16016,0.041 -1,0.47852 c 0.74,0.9 1.59945,2.81992 1.93945,3.91992 l 1.04102,-0.53906 c -0.36,-1 -1.32047,-2.99938 -1.98047,-3.85938 z m -29.96094,0.43946 -1.05859,0.3789 c 0.48,0.82 1.02039,2.04055 1.40039,3.06055 0.42,1.04 0.87914,2.33945 1.11914,3.43945 l 1.2207,-0.3789 c -0.3,-1 -0.86023,-2.47946 -1.24023,-3.43946 -0.44,-1.04 -0.98141,-2.24054 -1.44141,-3.06054 z m -3.63867,0.16015 c -0.16,1.16 -0.56,2.54 -1,3.5 -0.34,0.78 -0.82,1.79875 -1.5,2.71875 l 1.13867,0.54102 c 0.52,-0.8 1.08188,-1.92078 1.42188,-2.80078 0.4,-0.98 0.77992,-2.33993 0.91992,-2.91993 0.06,-0.2 0.15875,-0.60031 0.21875,-0.82031 l -1.19922,-0.21875 z m 74.79883,0.45899 c -0.96,1.62 -2.25899,2.98047 -3.95899,3.98046 -1.1,0.64002 -2.30054,1.0593 -3.56054,1.2793 l 0.62109,1.08008 c 0.98,-0.24 2.43953,-0.73844 3.51953,-1.39844 1.72,-1.04 3.05953,-2.32133 4.01953,-3.86133 l -0.64062,-1.08007 z m -108.96289,0.12109 c -1.76433,2.76693 -4.28386,4.52148 -7.5586,5.26367 l 0.66407,1.15235 c 3.3789,-0.87891 5.88541,-2.66602 7.51953,-5.36133 l -0.625,-1.05469 z m -7.17774,0.0586 -0.67383,0.85938 c 0.73569,0.3776 1.4681,0.91146 2.19727,1.60156 l 0.74219,-0.9375 c -0.77474,-0.65755 -1.52995,-1.16536 -2.26563,-1.52344 z m 108.6211,0.0801 -0.53907,0.98047 c 0.74,0.3 1.94008,0.90078 2.58008,1.30078 l 0.53906,-1 c -0.56,-0.34 -1.86007,-0.98125 -2.58007,-1.28125 z m -67.36133,19.30274 0,9.0039 1.20117,0 0,-4.74609 c 1.03516,0.44922 2.10938,1.15234 3.22266,2.10937 l 0.61523,-1.16211 c -1.21745,-0.90494 -2.49674,-1.6048 -3.83789,-2.09961 l 0,-3.10546 -1.20117,0 z m 21.74219,0.12109 c 0.04,0.18 0.0801,0.71906 0.0801,1.03906 l 0,1.33985 -2.96093,0 c -0.38,0 -0.86008,-0.0401 -1.08008,-0.0801 l 0,1.20117 c 0.22,-0.04 0.69961,-0.0605 1.09961,-0.0605 l 2.9414,0 c -0.04,2.14 -0.82132,3.61961 -2.86132,4.59961 l 1.02148,0.75977 c 2.22,-1.24 2.93852,-3.01938 2.97852,-5.35938 l 2.66015,0 c 0.34,0 0.86102,0.0191 1.04102,0.0391 l 0,-1.16016 c -0.18,0.02 -0.65953,0.0606 -1.01953,0.0606 l -2.68164,0 0,-1.33985 c 0,-0.3 0.0401,-0.85906 0.0801,-1.03906 l -1.29882,0 z m 46.95898,0 c 0.02,0.7 -0.10023,1.49828 -0.24023,2.23828 -0.62,0.06 -1.1986,0.1211 -1.5586,0.12109 -0.32,0.02 -0.62092,0.02 -0.96094,0 l 0.0996,1.17969 c 0.28,-0.06 0.72094,-0.10062 0.96094,-0.14062 0.26,-0.02 0.71875,-0.0791 1.21875,-0.11914 -0.38,1.46 -1.15875,3.8007 -2.21875,5.2207 l 1.08008,0.45898 c 1.12,-1.78 1.85977,-4.24078 2.25977,-5.80078 0.44,-0.04 0.83961,-0.0586 1.0996,-0.0586 0.68001,0 1.03954,0.13906 1.01954,1.03906 -0.02,1.18 -0.13952,2.58078 -0.51954,3.30078 -0.19999,0.38 -0.43984,0.43946 -0.83984,0.43946 -0.3,0 -0.86031,-0.0802 -1.32031,-0.24024 l 0.16015,1.16016 c 0.34002,0.08 0.85977,0.16015 1.25977,0.16015 0.9,0 1.36117,-0.29953 1.70117,-1.01953 0.46,-0.92 0.63867,-2.62039 0.63867,-3.90039 0,-1.54 -0.91843,-1.96096 -1.89843,-1.96093 -0.24,0 -0.62055,0.0205 -1.06055,0.0605 0.1,-0.54 0.19977,-1.12039 0.25977,-1.40039 l 0.11914,-0.63867 -1.25977,-0.0996 z m -95.55859,0.35937 c -0.32,1.52 -0.96094,3.05883 -1.96094,4.29883 -0.94,1.18 -2.35906,2.28133 -4.03906,2.86133 l 0.91992,0.98047 c 1.54,-0.66 3.13961,-1.92016 4.09961,-3.16016 0.9,-1.14 1.5189,-2.52007 1.8789,-3.58007 0.08,-0.28 0.24133,-0.70102 0.36133,-1.04102 l -1.25976,-0.35938 z m 16.47851,0.0801 c 0.06,0.36 0.0996,0.91875 0.0996,1.21875 l 0,6.18164 c 0,0.4 -0.0396,1.01891 -0.0996,1.37891 l 1.30078,0 c -0.04,-0.36 -0.0801,-1.03891 -0.0801,-1.37891 l 0,-3.2207 c 1.08,0.34 2.49968,0.91906 3.67968,1.53906 l 0.51953,-1.09961 c -1.2,-0.6 -2.83921,-1.24015 -4.19921,-1.66015 l 0,-1.74024 c 0,-0.32 0.0596,-0.87875 0.0996,-1.21875 l -1.32031,0 z m 89.16016,0.43946 -0.69922,0.90039 c 0.86,0.52 2.07922,1.46 2.69922,2 l 0.74023,-0.91993 c -0.62,-0.56 -1.96023,-1.50046 -2.74023,-1.98046 z m -5.09961,0.30078 -1,0.47851 c 0.74,0.9 1.59945,2.81992 1.93945,3.91993 l 1.04102,-0.53907 c -0.36,-1 -1.32047,-2.99937 -1.98047,-3.85937 z m -34.2793,0.0586 c 0.04,0.22 0.0801,0.54031 0.0801,0.82031 0,1.14 -0.0203,2.92133 -0.32031,3.86133 -0.3,0.98 -0.84024,1.69844 -1.74024,2.39844 l 0.95899,0.7207 c 0.9,-0.72 1.58133,-1.75984 1.86133,-2.83984 0.3,-1.04 0.32031,-3.02063 0.32031,-4.14063 0,-0.28 0.0601,-0.70031 0.0801,-0.82031 l -1.24024,0 z m 2.69922,0 c 0.02,0.1 0.0801,0.45982 0.0801,0.83985 l 0,5.84179 c 0,0.18 -0.0401,0.42008 -0.0801,0.58008 l 0.64063,0.51953 c 0.1,-0.06 0.1989,-0.15976 0.3789,-0.25976 1.14,-0.56 2.60047,-1.6804 3.48047,-2.9004 l -0.64062,-0.91992 c -0.76,1.16 -1.83969,1.99994 -2.67969,2.41992 l 0,-5.28124 c 0,-0.38 0.0405,-0.73985 0.0605,-0.83985 l -1.24024,0 z m 43.01953,1.44141 c -0.62,1.28 -1.77976,2.52 -3.25976,3.5 -0.96,0.6 -2.35883,1.11842 -3.79883,1.39844 l 0.61914,1.08007 c 1.22,-0.26 2.82031,-0.85906 3.82031,-1.53906 1.56,-1.02 2.65946,-2.16 3.43945,-3.5 l -0.82031,-0.93945 z m -107.32031,0.59961 0,1.25976 c 0.34,-0.02 0.88141,-0.0605 1.44141,-0.0605 l 5.66015,0 c 0.46,0 0.86008,0.0605 1.08008,0.0605 l 0,-1.25976 c -0.24,0.04 -0.58156,0.0801 -1.10156,0.0801 l -5.63867,0 c -0.56,0 -1.12141,-0.0401 -1.44141,-0.0801 z m 3.30078,18.42187 c -0.08,0.26 -0.20078,0.63985 -0.30078,0.83985 -0.48,0.98 -1.2982,2.36054 -3.1582,3.56054 l 0.89843,0.75977 c 1.08,-0.74 1.88,-1.60094 2.5,-2.46094 l 3.10157,0 c -0.22,0.84 -0.7611,1.92039 -1.6211,2.90039 -1.18,1.34 -2.44,2.14063 -4,2.64063 l 1.04102,0.90039 c 1.5,-0.58 2.83992,-1.56039 3.91992,-2.90039 0.9,-1.08 1.55945,-2.33961 1.93945,-3.59961 0.06,-0.2 0.19883,-0.50016 0.29883,-0.66016 l -0.73828,-0.44141 c -0.16,0.1 -0.42117,0.14063 -0.70117,0.14063 l -2.59961,0 c 0.1,-0.14 0.16023,-0.29945 0.24023,-0.43945 0.08,-0.2 0.31899,-0.59985 0.45899,-0.83985 l -1.2793,-0.40039 z m 58.89844,0.0996 0,9.00391 1.20117,0 0,-4.7461 c 1.03516,0.44922 2.10938,1.15235 3.22266,2.10938 l 0.61523,-1.16211 c -1.21745,-0.90495 -2.49674,-1.60482 -3.83789,-2.09961 l 0,-3.10547 -1.20117,0 z m 48.38086,0.43945 0,1.1211 c 0.28,-0.02 0.70148,-0.041 1.02148,-0.041 l 4.03906,0 c 0.38,0 0.81961,0.021 1.09961,0.041 l 0,-1.1211 c -0.3,0.04 -0.74007,0.0605 -1.08007,0.0605 l -4.0586,0 c -0.32,0 -0.74148,-0.0205 -1.02148,-0.0605 z m -114.5,0.4004 c 0,0.27998 -0.0201,0.68093 -0.0801,0.96093 -0.44,1.94 -1.49852,4.84039 -4.97852,6.40039 l 0.97852,0.81836 c 3.14,-1.66 4.52164,-4.35906 5.18164,-7.03906 0.04,-0.14 0.13977,-0.51937 0.25977,-0.85938 l -1.36133,-0.28124 z m -5.47852,0.0996 -1.02148,0.58008 c 0.56,0.74 1.38031,2.22156 1.82031,3.10156 l 1.01953,-0.62109 c -0.42,-0.78 -1.29836,-2.32055 -1.81836,-3.06055 z m 35.83985,0.3418 c -0.14,0.06 -0.48078,0.0996 -0.80079,0.0996 l -4.14062,0 c -0.32,0 -0.99867,-0.0601 -1.13867,-0.0801 l 0,1.24024 c 0.12,-0.02 0.75867,-0.0801 1.13867,-0.0801 l 3.91992,0 c -0.28,0.7 -0.91867,1.71953 -1.63867,2.51953 -1.1,1.2 -2.54078,2.36055 -4.30078,3.06055 l 0.80078,0.8789 c 1.58,-0.68 2.96008,-1.80047 4.08008,-2.98047 1.04,0.94 2.08031,2.14157 2.82031,3.10157 l 0.87891,-0.80078 c -0.7,-0.88 -1.92,-2.15961 -3,-3.09961 0.72,-0.94 1.40117,-2.14039 1.70117,-2.90039 0.06,-0.16 0.19976,-0.39954 0.25976,-0.51954 l -0.58007,-0.43945 z m 15.16015,0.0781 c 0.04,0.22 0.0801,0.54031 0.0801,0.82031 0,1.14 -0.0203,2.92133 -0.32031,3.86133 -0.3,0.98 -0.84024,1.69843 -1.74024,2.39843 l 0.95899,0.72071 c 0.9,-0.72 1.58133,-1.75985 1.86133,-2.83985 0.3,-1.04 0.32031,-3.02062 0.32031,-4.14062 0,-0.28 0.0601,-0.70031 0.0801,-0.82031 l -1.24024,0 z m 2.69922,0 c 0.02,0.1 0.0801,0.46179 0.0801,0.84179 l 0,5.83985 c 0,0.18 -0.0401,0.42008 -0.0801,0.58007 l 0.64063,0.51954 c 0.1,-0.06 0.1989,-0.15977 0.3789,-0.25977 1.14,-0.56 2.60047,-1.68039 3.48047,-2.90039 l -0.64062,-0.91992 c -0.76,1.16 -1.83969,1.99992 -2.67969,2.41992 l 0,-5.2793 c 0,-0.38 0.0404,-0.74179 0.0606,-0.84179 l -1.24024,0 z m 41.61914,0.38086 -1.05859,0.38085 c 0.48,0.82 1.02039,2.0386 1.40039,3.0586 0.42,1.04 0.87914,2.34142 1.11914,3.4414 l 1.2207,-0.38085 c -0.3,-1 -0.86023,-2.47946 -1.24023,-3.43946 -0.44,-1.04 -0.98141,-2.24054 -1.44141,-3.06054 z m -3.63867,0.16015 c -0.16,1.16 -0.56,2.54 -1,3.5 -0.34,0.78 -0.82,1.80072 -1.5,2.7207 l 1.13867,0.53907 c 0.52,-0.8 1.08188,-1.92078 1.42188,-2.80078 0.4,-0.98 0.77992,-2.33993 0.91992,-2.91993 0.06,-0.2 0.15875,-0.59835 0.21875,-0.81836 l -1.19922,-0.2207 z m 34.43945,1.01953 c -0.12,0.06 -0.37914,0.0996 -0.61914,0.0996 l -5.20117,0 c -0.28,0 -0.73867,-0.0186 -1.13867,-0.0586 l 0,1.13867 c 0.38,-0.02 0.89867,-0.0391 1.13867,-0.0391 l 5.06055,0 c -0.24,0.72 -0.58071,1.40008 -1.22071,2.08008 -0.96,0.94 -2.40015,1.55937 -3.66015,1.85937 l 0.82031,0.91992 c 1.04,-0.32 2.64024,-0.92015 3.74023,-2.16015 0.82,-0.88 1.32063,-2.01953 1.64063,-3.01953 0.04,-0.08 0.10016,-0.23938 0.16016,-0.35938 l -0.72071,-0.46094 z m -119.61914,18.8418 -0.70117,0.30078 c 0.34,0.42 0.68094,1.08008 0.96094,1.58008 l 0.71875,-0.33984 c -0.24,-0.46 -0.65852,-1.12102 -0.97852,-1.54102 z m 65.09766,0.16016 0,9.0039 1.20117,0 0,-4.74609 c 1.03516,0.44922 2.10938,1.15234 3.22266,2.10937 l 0.61523,-1.16211 c -1.21745,-0.90494 -2.49674,-1.60481 -3.83789,-2.0996 l 0,-3.10547 -1.20117,0 z m -59.33789,0.0801 c -0.06,0.3 -0.14024,0.60079 -0.24024,0.80079 -0.42,0.92 -1.45937,2.54023 -3.35937,3.74023 l 0.91992,0.75977 c 1.2,-0.82 2.11977,-1.86032 2.75977,-2.82032 l 3.25976,0 c -0.16,0.7 -0.64125,1.68008 -1.28125,2.58008 -0.78,-0.52 -1.56,-1.01976 -2,-1.25976 l -0.67969,0.77929 c 0.48,0.28 1.24,0.7793 2,1.2793 -1.12,1.16 -2.42031,2.02047 -3.82031,2.48047 l 0.98047,0.86133 c 1.38,-0.54 2.71977,-1.52164 3.75977,-2.68164 0.46,0.34 0.86156,0.66084 1.10156,0.88086 l 0.71875,-0.9004 c -0.24,-0.18 -0.65867,-0.47882 -1.13867,-0.79882 0.74,-1.02 1.29914,-2.28071 1.61914,-3.22071 0.06,-0.2 0.16078,-0.48015 0.30078,-0.66015 L 214.25,504.44336 c -0.16,0.1 -0.41828,0.16016 -0.73828,0.16016 l -2.74024,0 0.17969,-0.33985 c 0.12,-0.22 0.25899,-0.47932 0.45899,-0.77929 l -1.29883,-0.4004 z m 100,0 c -0.06,0.3 -0.14024,0.60079 -0.24024,0.80079 -0.42,0.92 -1.45937,2.54023 -3.35937,3.74023 l 0.91992,0.75977 c 1.2,-0.82 2.11977,-1.86032 2.75977,-2.82032 l 3.25976,0 c -0.16,0.7 -0.64125,1.68008 -1.28125,2.58008 -0.78,-0.52 -1.56,-1.01976 -2,-1.25976 l -0.67969,0.77929 c 0.48,0.28 1.24,0.7793 2,1.2793 -1.12,1.16 -2.42031,2.02047 -3.82031,2.48047 l 0.98047,0.86133 c 1.38,-0.54 2.71977,-1.52164 3.75977,-2.68164 0.46,0.34 0.86156,0.66084 1.10156,0.88086 l 0.71875,-0.9004 c -0.24,-0.18 -0.65867,-0.47882 -1.13867,-0.79882 0.74,-1.02 1.29914,-2.28071 1.61914,-3.22071 0.06,-0.2 0.16078,-0.48015 0.30078,-0.66015 L 314.25,504.44336 c -0.16,0.1 -0.41828,0.16016 -0.73828,0.16016 l -2.74024,0 0.17969,-0.33985 c 0.12,-0.22 0.25899,-0.47932 0.45899,-0.77929 l -1.29883,-0.4004 z m -106.90039,0.17969 -0.72071,0.30078 c 0.32,0.44 0.70141,1.09961 0.94141,1.59961 l 0.73828,-0.32031 c -0.26,-0.48 -0.67898,-1.18008 -0.95898,-1.58008 z m 27.67968,0.30078 -1.03906,0.35938 c 0.3,0.62 0.77946,2.00015 0.93946,2.66015 l 1.06054,-0.3789 c -0.2,-0.6 -0.74092,-2.14063 -0.96094,-2.64063 z m -31.85937,0.0996 c 0.04,0.24 0.0801,0.66039 0.0801,0.90039 0,0.34 -0.021,0.63946 -0.041,0.93946 l -1.59961,0 c -0.4,0 -0.89929,-0.0405 -1.27929,-0.0606 l 0,1.16016 c 0.44,-0.04 0.85929,-0.0391 1.27929,-0.0391 l 1.46094,0 c -0.32,2.06 -1.041,3.16008 -2.04102,4.08008 -0.25998,0.26 -0.67906,0.51922 -1.03906,0.69922 l 0.95899,0.86133 c 1.78,-1.3 2.84023,-2.74063 3.24023,-5.64063 l 2.75977,0 c 0,1.1 -0.11946,3.23907 -0.43946,4.03907 -0.12,0.26 -0.28007,0.32031 -0.58007,0.32031 -0.38,0 -1,-0.10024 -1.5,-0.24024 l 0.0605,1.18164 c 0.5,0.08 1.2593,0.15821 1.7793,0.15821 0.54,0 0.94016,-0.19867 1.16016,-0.63867 0.48,-1.04 0.57914,-3.94086 0.61914,-4.88086 0.02,-0.22 0.0401,-0.48016 0.0801,-0.66016 l -0.61914,-0.40039 c -0.24,0.02 -0.49976,0.0606 -0.75976,0.0606 l -2.46094,0 c 0.04,-0.3 0.0406,-0.61899 0.0606,-0.95899 0.02,-0.24 0.0405,-0.64086 0.0605,-0.88086 l -1.24023,0 z m 35.13867,0.33985 c -0.24,1.58 -0.87875,3.20078 -1.71875,4.30078 -1.04,1.3 -2.47976,2.23922 -3.75976,2.69922 l 0.93945,0.86132 c 1.06,-0.5 2.5807,-1.4614 3.7207,-2.9414 0.86,-1.16 1.43836,-2.60039 1.81836,-3.90039 0.04,-0.14 0.10024,-0.35922 0.24024,-0.69922 l -1.24024,-0.32031 z m -6.19922,0.25976 -1.01953,0.41992 c 0.28,0.52 0.87961,1.98024 1.09961,2.74024 l 1.06055,-0.43945 c -0.3,-0.80001 -0.82063,-2.08071 -1.14063,-2.72071 z m 29.06055,0.25977 0,1.26172 c 0.24,-0.02 0.83875,-0.0606 1.21875,-0.0606 l 4.82031,0 0,4.33984 -4.8789,0 c -0.44,0 -0.94071,-0.0596 -1.22071,-0.0996 l 0,1.2793 c 0.34,-0.04 0.82024,-0.0391 1.24024,-0.0391 l 4.85937,0 -0.0195,0.5 1.24024,0 c 0,0 -0.041,-0.70055 -0.041,-1.06055 l 0,-5.17969 c 0,-0.24 0.0215,-0.66039 0.0215,-0.90039 -0.2,0.02 -0.60132,0.0195 -0.86132,0.0195 l -5.16016,0 c -0.32,0 -0.83875,-0.0205 -1.21875,-0.0605 z m 36.13867,0.2207 -1.05859,0.38086 c 0.48,0.82 1.02039,2.03859 1.40039,3.05859 0.42,1.04 0.87914,2.34141 1.11914,3.44141 l 1.2207,-0.38086 c -0.3,-1 -0.86023,-2.47945 -1.24023,-3.43945 -0.44,-1.04 -0.98141,-2.24055 -1.44141,-3.06055 z m -3.63867,0.16016 c -0.16,1.16 -0.56,2.54 -1,3.5 -0.34,0.78 -0.82,1.8007 -1.5,2.7207 l 1.13867,0.53906 c 0.52,-0.8 1.08188,-1.91883 1.42188,-2.79883 0.4,-0.98 0.77992,-2.34187 0.91992,-2.92187 0.06,-0.2 0.15875,-0.59836 0.21875,-0.81836 l -1.19922,-0.2207 z m -91.20117,19.9414 -0.5586,0.91992 c 0.72,0.38001 1.85946,1.08002 2.43946,1.5 l 0.61914,-0.93945 c -0.58,-0.42 -1.7,-1.06047 -2.5,-1.48047 z m 71.11914,0.0801 0,9.00391 1.20117,0 0,-4.7461 c 1.03516,0.44922 2.10938,1.15235 3.22266,2.10938 l 0.61523,-1.16211 c -1.21745,-0.90495 -2.49674,-1.60482 -3.83789,-2.09961 l 0,-3.10547 -1.20117,0 z m 20,0 0,9.00391 1.20117,0 0,-4.7461 c 1.03516,0.44922 2.10938,1.15235 3.22266,2.10938 l 0.61523,-1.16211 c -1.21745,-0.90495 -2.49674,-1.60482 -3.83789,-2.09961 l 0,-3.10547 -1.20117,0 z m -71.29883,0.1211 c 0.02,0.69997 -0.10023,1.50023 -0.24023,2.24023 -0.62,0.06 -1.1986,0.11914 -1.5586,0.11914 -0.32,0.02 -0.62092,0.02 -0.96094,0 l 0.0996,1.17969 c 0.28,-0.06 0.72094,-0.10063 0.96094,-0.14063 0.26,-0.02 0.71875,-0.0791 1.21875,-0.11914 -0.38,1.46 -1.15875,3.80068 -2.21875,5.22071 l 1.08008,0.45898 c 1.12,-1.78 1.85977,-4.23883 2.25977,-5.79883 0.44,-0.04 0.83961,-0.0606 1.0996,-0.0606 0.68002,0 1.03954,0.13907 1.01954,1.03907 -0.02,1.18 -0.13953,2.58078 -0.51954,3.30078 -0.19999,0.38 -0.43984,0.43945 -0.83984,0.43945 -0.3,0 -0.86031,-0.0802 -1.32031,-0.24023 l 0.16015,1.16015 c 0.34002,0.08 0.85977,0.16016 1.25977,0.16016 0.9,0 1.36117,-0.29953 1.70117,-1.01953 0.46,-0.92 0.63867,-2.62039 0.63867,-3.90039 0,-1.54 -0.91843,-1.95899 -1.89843,-1.95899 -0.24,0 -0.62055,0.0186 -1.06055,0.0586 0.1,-0.54 0.19977,-1.11844 0.25977,-1.39844 l 0.11914,-0.64063 -1.25977,-0.0996 z m 13.04102,0 c 0.04,0.17998 0.0801,0.71906 0.0801,1.03906 l 0,1.33984 -2.96093,0 c -0.38,0 -0.86008,-0.0401 -1.08008,-0.0801 l 0,1.20118 c 0.22,-0.04 0.69961,-0.0606 1.09961,-0.0606 l 2.9414,0 c -0.04,2.14 -0.82132,3.61961 -2.86132,4.59961 l 1.02148,0.75976 c 2.22,-1.24 2.93852,-3.01937 2.97852,-5.35937 l 2.66015,0 c 0.34,0 0.86102,0.0191 1.04102,0.0391 l 0,-1.1582 c -0.18,0.02 -0.65953,0.0586 -1.01953,0.0586 l -2.68164,0 0,-1.33984 c 0,-0.3 0.0401,-0.85909 0.0801,-1.03906 l -1.29882,0 z m 82.5,1.16015 c -0.14,0.06 -0.48078,0.0996 -0.80079,0.0996 l -4.14062,0 c -0.32,0 -0.99867,-0.0601 -1.13867,-0.0801 l 0,1.24024 c 0.12,-0.02 0.75867,-0.0801 1.13867,-0.0801 l 3.91992,0 c -0.28,0.7 -0.91867,1.71953 -1.63867,2.51953 -1.1,1.2 -2.54078,2.36055 -4.30078,3.06055 l 0.80078,0.8789 c 1.58,-0.68 2.96008,-1.79851 4.08008,-2.97851 1.04,0.94 2.08031,2.13961 2.82031,3.09961 l 0.87891,-0.80078 c -0.7,-0.88 -1.92,-2.15961 -3,-3.09961 0.72,-0.94 1.40117,-2.14039 1.70117,-2.90039 0.06,-0.16 0.19976,-0.39954 0.25976,-0.51954 l -0.58007,-0.43945 z m -90.56055,0.0195 -1,0.48047 c 0.74,0.9 1.59945,2.81992 1.93945,3.91992 l 1.04102,-0.54101 c -0.36,-1 -1.32047,-2.99938 -1.98047,-3.85938 z m 33.90039,0.21875 0,1.26172 c 0.24,-0.02 0.83875,-0.0606 1.21875,-0.0606 l 4.82031,0 0,4.33985 -4.8789,0 c -0.44,0 -0.94071,-0.0596 -1.22071,-0.0996 l 0,1.2793 c 0.34,-0.04 0.82024,-0.0391 1.24024,-0.0391 l 4.85937,0 -0.0195,0.5 1.24024,0 c 0,0 -0.041,-0.70054 -0.041,-1.06054 l 0,-5.17969 c 0,-0.24 0.0215,-0.66039 0.0215,-0.90039 -0.2,0.02 -0.60132,0.0195 -0.86132,0.0195 l -5.16016,0 c -0.32,0 -0.83875,-0.0204 -1.21875,-0.0606 z m -52.70117,0.8418 c -0.96,1.62 -2.25899,2.97853 -3.95899,3.97851 -1.1,0.64001 -2.30054,1.06123 -3.56054,1.28126 l 0.62109,1.08007 c 0.98,-0.24 2.43953,-0.74039 3.51953,-1.40039 1.72,-1.04 3.05953,-2.31937 4.01953,-3.85937 l -0.64062,-1.08008 z m -7.51953,0.25977 -0.53907,0.97851 c 0.74,0.3 1.94008,0.90078 2.58008,1.30078 l 0.53906,-1 c -0.55998,-0.34 -1.86007,-0.97931 -2.58007,-1.27929 z m -7.95899,18.74023 c 0.04,0.22 0.0801,0.53836 0.0801,0.81836 0,1.14 -0.0203,2.92133 -0.32031,3.86133 -0.3,0.98 -0.84024,1.70039 -1.74024,2.40039 l 0.95899,0.71875 c 0.9,-0.72 1.58133,-1.75985 1.86133,-2.83985 0.3,-1.04 0.32031,-3.02062 0.32031,-4.14062 0,-0.28 0.0601,-0.69836 0.0801,-0.81836 l -1.24024,0 z m 2.69922,0 c 0.02,0.1 0.0801,0.45984 0.0801,0.83984 l 0,5.83985 c 0,0.18 -0.0401,0.42008 -0.0801,0.58008 l 0.64063,0.51953 c 0.1,-0.06 0.1989,-0.15977 0.3789,-0.25977 1.14,-0.56 2.60047,-1.68039 3.48047,-2.90039 l -0.64062,-0.91992 c -0.76,1.16 -1.83969,1.99992 -2.67969,2.41992 l 0,-5.2793 c 0,-0.38 0.0404,-0.73984 0.0606,-0.83984 l -1.24024,0 z"
       id="flowRoot4148-35"
       inkscape:connector-curvature="0" />
  </g>
</svg>
